<svg xmlns="http://www.w3.org/2000/svg" width="456.192" height="133.824" viewBox="0 0 456.192 133.824">
  <path id="Path_213" data-name="Path 213" d="M775.4,458.92a1.009,1.009,0,0,1-.5-.13c-45.48-24.68-99.31-24.06-150.72-19.71-7.02.59-14.07,1.25-21.13,1.91-44.17,4.1-89.85,8.35-133.29-2.34-46.37-11.41-78.69-28.51-83.96-83.01a1.045,1.045,0,1,1,2.08-.2c5.18,53.49,36.71,69.94,82.39,81.18,43.1,10.6,88.6,6.38,132.6,2.29,7.06-.66,14.11-1.31,21.14-1.91,50.06-4.24,102.43-4.94,147.42,17.62a18.019,18.019,0,0,1-2.23-8.76c-.08-7.37,3.6-15.57,9.38-20.89,5.64-5.19,12.58-8.62,19.3-11.95a129.143,129.143,0,0,0,12.25-6.61c25.28-16.12,35.81-51.47,23.47-78.79a1.043,1.043,0,0,1,1.9-.86c12.75,28.24,1.88,64.76-24.25,81.41a130.242,130.242,0,0,1-12.45,6.72c-6.59,3.26-13.4,6.62-18.81,11.61-5.36,4.94-8.78,12.52-8.71,19.33a14.729,14.729,0,0,0,4.8,11.25,1.049,1.049,0,0,1-.7,1.83Z" transform="translate(-385.293 -325.596)" fill="#212121" stroke="#212121" stroke-linecap="round" stroke-linejoin="round" stroke-width="1"/>
</svg>
