<svg xmlns="http://www.w3.org/2000/svg" xmlns:xlink="http://www.w3.org/1999/xlink" width="604.022" height="156.778" viewBox="0 0 604.022 156.778">
  <defs>
    <radialGradient id="radial-gradient" cx="0.5" cy="0.5" r="0.5" gradientUnits="objectBoundingBox">
      <stop offset="0" stop-color="#fff"/>
      <stop offset="0.488" stop-color="#fff" stop-opacity="0.773"/>
      <stop offset="1" stop-color="#fff" stop-opacity="0"/>
    </radialGradient>
  </defs>
  <g id="Group_712" data-name="Group 712" transform="translate(-260 -245.611)">
    <path id="Path_214" data-name="Path 214" d="M559.75,386.73c.12-.17.24-.35.37-.52-.62-1.27-1.78-2.83-2.24-4.08-.34-.92-1.52-1.85-1.45-2.67-.55-.67-.5-.48-1.04-.74-.39.37-.79.74-1.18,1.11.08.11.16.22.24.32-.16.12-.32.24-.49.36.15.54.58.85.79,1.41-.05.04-.11.08-.16.12.47.65.95,1.3,1.42,1.94a14.664,14.664,0,0,0,2.85,3.89c.27-.2.54-.4.81-.59-.04-.05-.08-.11-.12-.16l.32-.24c-.04-.05-.08-.11-.12-.16Zm-8.97,1.34c-.05.04-.11.08-.16.12-.12-.16-.24-.32-.36-.49-.05.04-.11.08-.16.12l-.24-.32c-.05.04-.11.08-.16.12-.12-.16-.24-.32-.36-.49-.05.04-.11.08-.16.12-.12-.16-.24-.32-.36-.49a1.615,1.615,0,0,1-.56-.09c-.32.24-.65.47-.97.71a1.55,1.55,0,0,1-.29.96,17.62,17.62,0,0,0,4.35,2.54c.35.24.69.49,1.04.74.05-.04.11-.08.16-.12.32.1.64.2.96.29.71-.58.52-.74.78-1.32a9.853,9.853,0,0,0-2.63-1.56c-.29-.28-.58-.57-.87-.85Zm.49,9.84c-.28.04-.41-.09-.56-.09l-.32.24c-.23-.08-.45-.17-.68-.25-.11.08-.22.16-.32.24-.23-.08-.45-.17-.68-.25-.11.08-.22.16-.32.24-.32-.1-.64-.2-.96-.29l-.32.24c-.41-.11-.83-.22-1.24-.34-.11.08-.22.16-.32.24-.04-.05-.08-.11-.12-.16a4.263,4.263,0,0,0-2.01-.02c-.6-.06-.85.53-1.3.95l.24.32c-.25.33-.16.08-.21.4-.05.04-.11.08-.16.12.04.05.08.11.12.16.05-.04.11-.08.16-.12.84.68,1.74.31,2.69.27.13.07.27.14.4.21l.32-.24c.23.08.45.17.68.25.11-.08.22-.16.32-.24.13.07.27.14.4.21l.32-.24c.13.07.27.14.4.21a9.694,9.694,0,0,1,2.61-.17c.27-.2.54-.4.81-.59-.04-.05-.08-.11-.12-.16.32-.39.23-.43.41-.8-.08-.11-.16-.22-.24-.32Z" transform="translate(-137.09 -67.05)" fill="#f39b13" fill-rule="evenodd"/>
    <path id="Path_216" data-name="Path 216" d="M666.55,384.99c-.11.08-.21.16-.32.24-.12-.16-.24-.32-.37-.48-.53.16-.84.6-1.4.82-.04-.05-.08-.11-.12-.16-.64.49-1.27.98-1.91,1.47a14.9,14.9,0,0,0-3.82,2.93c.2.27.41.53.61.8.05-.04.11-.08.16-.12.08.11.16.21.24.32.05-.04.11-.08.16-.12.18.12.35.24.53.36,1.26-.65,2.79-1.84,4.03-2.33.91-.36,1.81-1.56,2.63-1.52.66-.56.46-.51.71-1.05-.38-.38-.76-.77-1.14-1.15Zm-8.08-3.92c.11-.08.21-.16.32-.24-.04-.05-.08-.11-.12-.16.16-.12.32-.24.48-.37-.04-.05-.08-.11-.12-.16.16-.12.32-.24.48-.37a1.706,1.706,0,0,1,.07-.56c-.24-.32-.49-.64-.73-.96a1.514,1.514,0,0,1-.97-.27,17.681,17.681,0,0,0-2.44,4.41c-.24.35-.47.7-.71,1.05.04.05.08.11.12.16-.09.32-.18.64-.27.97.6.69.75.51,1.33.75a9.941,9.941,0,0,0,1.5-2.67l.83-.89-.12-.16c.16-.12.32-.24.48-.37-.04-.05-.08-.11-.12-.16Zm-10.03-6.47c.04-.6-.55-.84-.98-1.27-.11.08-.21.16-.32.24-.34-.24-.08-.15-.4-.2-.04-.05-.08-.11-.12-.16-.05.04-.11.08-.16.12.04.05.08.11.12.16-.66.85-.27,1.75-.21,2.69-.07.13-.13.27-.2.4.08.11.16.21.24.32-.08.23-.16.46-.23.69.08.11.16.21.24.32-.07.13-.13.27-.2.4.08.11.16.21.24.32-.07.13-.13.27-.2.4a9.756,9.756,0,0,1,.23,2.61c.2.27.41.53.61.8.05-.04.11-.08.16-.12.39.31.44.22.81.39.11-.08.21-.16.32-.24-.04-.28.08-.41.07-.56-.08-.11-.16-.21-.24-.32.08-.23.16-.46.23-.69-.08-.11-.16-.21-.24-.32.08-.23.16-.46.23-.69-.08-.11-.16-.21-.24-.32.09-.32.18-.64.27-.97-.08-.11-.16-.21-.24-.32.1-.42.2-.83.31-1.25-.08-.11-.16-.21-.24-.32.05-.04.11-.08.16-.12a4.271,4.271,0,0,0-.02-2.01Z" transform="translate(-107.09 -67.05)" fill="#f39b13" fill-rule="evenodd"/>
    <g id="Group_709" data-name="Group 709">
      <g id="Group_711" data-name="Group 711">
        <g id="Group_708" data-name="Group 708" transform="translate(0 0)">
          <g id="Group_706" data-name="Group 706">
            <path id="Path_369" data-name="Path 369" d="M0,1046.63H563.232c22.51,0,40.79,11.884,40.79,26.516v103.746c0,14.633-18.281,26.516-40.79,26.516H0V1046.63Z" transform="translate(260 -801.019)" fill="url(#radial-gradient)"/>
            <g id="Group" transform="translate(-87.09 -67.05)">
              <text id="日本最大級の空き家管理専門サイト" transform="translate(423.05 373.18) rotate(-4.32)" fill="#212121" font-size="24" font-family="Zen Maru Gothic" font-weight="500"><tspan x="0" y="0">日本最大級の空き家管理専門サイト</tspan></text>
              <text id="_お気軽に_" data-name="            お気軽に  " transform="translate(400.778 431.054) rotate(-4.32)" fill="#4488bc" font-size="32" font-family="Zen Maru Gothic" font-weight="700"><tspan x="0" y="0" xml:space="preserve">            お気軽に  </tspan></text>
              <text id="お問い合わせ" transform="translate(659.589 405.373) rotate(-4.32)" fill="#212121" font-size="24" font-family="Zen Maru Gothic" font-weight="500"><tspan x="0" y="0">お問い合わせ</tspan></text>
            </g>
          </g>
          <path id="Path_213" data-name="Path 213" d="M775.4,458.92a1.009,1.009,0,0,1-.5-.13c-45.48-24.68-99.31-24.06-150.72-19.71-7.02.59-14.07,1.25-21.13,1.91-44.17,4.1-89.85,8.35-133.29-2.34-46.37-11.41-78.69-28.51-83.96-83.01a1.045,1.045,0,1,1,2.08-.2c5.18,53.49,36.71,69.94,82.39,81.18,43.1,10.6,88.6,6.38,132.6,2.29,7.06-.66,14.11-1.31,21.14-1.91,50.06-4.24,102.43-4.94,147.42,17.62a18.019,18.019,0,0,1-2.23-8.76c-.08-7.37,3.6-15.57,9.38-20.89,5.64-5.19,12.58-8.62,19.3-11.95a129.143,129.143,0,0,0,12.25-6.61c25.28-16.12,35.81-51.47,23.47-78.79a1.043,1.043,0,0,1,1.9-.86c12.75,28.24,1.88,64.76-24.25,81.41a130.242,130.242,0,0,1-12.45,6.72c-6.59,3.26-13.4,6.62-18.81,11.61-5.36,4.94-8.78,12.52-8.71,19.33a14.729,14.729,0,0,0,4.8,11.25,1.049,1.049,0,0,1-.7,1.83Z" transform="translate(-87.09 -67.05)" fill="#212121" stroke="#212121" stroke-linecap="round" stroke-linejoin="round" stroke-width="1"/>
        </g>
        <g id="Group_707" data-name="Group 707">
          <path id="Path_215" data-name="Path 215" d="M559.75,386.73c.12-.17.24-.35.37-.52-.62-1.27-1.78-2.83-2.24-4.08-.34-.92-1.52-1.85-1.45-2.67-.55-.67-.5-.48-1.04-.74-.39.37-.79.74-1.18,1.11.08.11.16.22.24.32-.16.12-.32.24-.49.36.15.54.58.85.79,1.41-.05.04-.11.08-.16.12.47.65.95,1.3,1.42,1.94a14.664,14.664,0,0,0,2.85,3.89c.27-.2.54-.4.81-.59-.04-.05-.08-.11-.12-.16l.32-.24c-.04-.05-.08-.11-.12-.16Zm-8.97,1.34c-.05.04-.11.08-.16.12-.12-.16-.24-.32-.36-.49-.05.04-.11.08-.16.12l-.24-.32c-.05.04-.11.08-.16.12-.12-.16-.24-.32-.36-.49-.05.04-.11.08-.16.12-.12-.16-.24-.32-.36-.49a1.615,1.615,0,0,1-.56-.09c-.32.24-.65.47-.97.71a1.55,1.55,0,0,1-.29.96,17.62,17.62,0,0,0,4.35,2.54c.35.24.69.49,1.04.74.05-.04.11-.08.16-.12.32.1.64.2.96.29.71-.58.52-.74.78-1.32a9.853,9.853,0,0,0-2.63-1.56c-.29-.28-.58-.57-.87-.85Zm.49,9.84c-.28.04-.41-.09-.56-.09l-.32.24c-.23-.08-.45-.17-.68-.25-.11.08-.22.16-.32.24-.23-.08-.45-.17-.68-.25-.11.08-.22.16-.32.24-.32-.1-.64-.2-.96-.29l-.32.24c-.41-.11-.83-.22-1.24-.34-.11.08-.22.16-.32.24-.04-.05-.08-.11-.12-.16a4.263,4.263,0,0,0-2.01-.02c-.6-.06-.85.53-1.3.95l.24.32c-.25.33-.16.08-.21.4-.05.04-.11.08-.16.12.04.05.08.11.12.16.05-.04.11-.08.16-.12.84.68,1.74.31,2.69.27.13.07.27.14.4.21l.32-.24c.23.08.45.17.68.25.11-.08.22-.16.32-.24.13.07.27.14.4.21l.32-.24c.13.07.27.14.4.21a9.694,9.694,0,0,1,2.61-.17c.27-.2.54-.4.81-.59-.04-.05-.08-.11-.12-.16.32-.39.23-.43.41-.8-.08-.11-.16-.22-.24-.32Z" transform="translate(-137.09 -67.05)" fill="none" stroke="#f39b13" stroke-width="1"/>
          <g id="Group_710" data-name="Group 710">
            <path id="Path_217" data-name="Path 217" d="M666.55,384.99c-.11.08-.21.16-.32.24-.12-.16-.24-.32-.37-.48-.53.16-.84.6-1.4.82-.04-.05-.08-.11-.12-.16-.64.49-1.27.98-1.91,1.47a14.9,14.9,0,0,0-3.82,2.93c.2.27.41.53.61.8.05-.04.11-.08.16-.12.08.11.16.21.24.32.05-.04.11-.08.16-.12.18.12.35.24.53.36,1.26-.65,2.79-1.84,4.03-2.33.91-.36,1.81-1.56,2.63-1.52.66-.56.46-.51.71-1.05-.38-.38-.76-.77-1.14-1.15Zm-8.08-3.92c.11-.08.21-.16.32-.24-.04-.05-.08-.11-.12-.16.16-.12.32-.24.48-.37-.04-.05-.08-.11-.12-.16.16-.12.32-.24.48-.37a1.706,1.706,0,0,1,.07-.56c-.24-.32-.49-.64-.73-.96a1.514,1.514,0,0,1-.97-.27,17.681,17.681,0,0,0-2.44,4.41c-.24.35-.47.7-.71,1.05.04.05.08.11.12.16-.09.32-.18.64-.27.97.6.69.75.51,1.33.75a9.941,9.941,0,0,0,1.5-2.67l.83-.89-.12-.16c.16-.12.32-.24.48-.37-.04-.05-.08-.11-.12-.16Zm-10.03-6.47c.04-.6-.55-.84-.98-1.27-.11.08-.21.16-.32.24-.34-.24-.08-.15-.4-.2-.04-.05-.08-.11-.12-.16-.05.04-.11.08-.16.12.04.05.08.11.12.16-.66.85-.27,1.75-.21,2.69-.07.13-.13.27-.2.4.08.11.16.21.24.32-.08.23-.16.46-.23.69.08.11.16.21.24.32-.07.13-.13.27-.2.4.08.11.16.21.24.32-.07.13-.13.27-.2.4a9.756,9.756,0,0,1,.23,2.61c.2.27.41.53.61.8.05-.04.11-.08.16-.12.39.31.44.22.81.39.11-.08.21-.16.32-.24-.04-.28.08-.41.07-.56-.08-.11-.16-.21-.24-.32.08-.23.16-.46.23-.69-.08-.11-.16-.21-.24-.32.08-.23.16-.46.23-.69-.08-.11-.16-.21-.24-.32.09-.32.18-.64.27-.97-.08-.11-.16-.21-.24-.32.1-.42.2-.83.31-1.25-.08-.11-.16-.21-.24-.32.05-.04.11-.08.16-.12a4.271,4.271,0,0,0-.02-2.01Z" transform="translate(-107.09 -67.05)" fill="none" stroke="#f39b13" stroke-width="1"/>
          </g>
        </g>
      </g>
    </g>
  </g>
</svg>
