<svg xmlns="http://www.w3.org/2000/svg" width="500.01" height="397.485" viewBox="0 0 500.01 397.485">
  <g id="_x3C_ÉOÉãÅ_Év_x3E__13_" transform="translate(-1174.562 -259.165)">
    <path id="Path_218" data-name="Path 218" d="M1674.54,376.53a2.173,2.173,0,0,1-1.99,1.98h-24.21V654.3a2.183,2.183,0,0,1-1.97,2.35h-443.6a2.183,2.183,0,0,1-1.97-2.35V378.51h-24.21a2.157,2.157,0,0,1-1.99-1.98,2.528,2.528,0,0,1,1.26-2.71l24.94-11.52,5.17-2.38,217.87-100.59a1.7,1.7,0,0,1,1.46,0l217.87,100.59,5.17,2.38,24.94,11.52a2.571,2.571,0,0,1,1.26,2.71Z" fill="#fff"/>
  </g>
</svg>
