<svg xmlns="http://www.w3.org/2000/svg" width="19.418" height="22.491" viewBox="0 0 19.418 22.491">
  <path id="Path_215" data-name="Path 215" d="M559.75,386.73c.12-.17.24-.35.37-.52-.62-1.27-1.78-2.83-2.24-4.08-.34-.92-1.52-1.85-1.45-2.67-.55-.67-.5-.48-1.04-.74-.39.37-.79.74-1.18,1.11.08.11.16.22.24.32-.16.12-.32.24-.49.36.15.54.58.85.79,1.41-.05.04-.11.08-.16.12.47.65.95,1.3,1.42,1.94a14.664,14.664,0,0,0,2.85,3.89c.27-.2.54-.4.81-.59-.04-.05-.08-.11-.12-.16l.32-.24c-.04-.05-.08-.11-.12-.16Zm-8.97,1.34c-.05.04-.11.08-.16.12-.12-.16-.24-.32-.36-.49-.05.04-.11.08-.16.12l-.24-.32c-.05.04-.11.08-.16.12-.12-.16-.24-.32-.36-.49-.05.04-.11.08-.16.12-.12-.16-.24-.32-.36-.49a1.615,1.615,0,0,1-.56-.09c-.32.24-.65.47-.97.71a1.55,1.55,0,0,1-.29.96,17.62,17.62,0,0,0,4.35,2.54c.35.24.69.49,1.04.74.05-.04.11-.08.16-.12.32.1.64.2.96.29.71-.58.52-.74.78-1.32a9.853,9.853,0,0,0-2.63-1.56c-.29-.28-.58-.57-.87-.85Zm.49,9.84c-.28.04-.41-.09-.56-.09l-.32.24c-.23-.08-.45-.17-.68-.25-.11.08-.22.16-.32.24-.23-.08-.45-.17-.68-.25-.11.08-.22.16-.32.24-.32-.1-.64-.2-.96-.29l-.32.24c-.41-.11-.83-.22-1.24-.34-.11.08-.22.16-.32.24-.04-.05-.08-.11-.12-.16a4.263,4.263,0,0,0-2.01-.02c-.6-.06-.85.53-1.3.95l.24.32c-.25.33-.16.08-.21.4-.05.04-.11.08-.16.12.04.05.08.11.12.16.05-.04.11-.08.16-.12.84.68,1.74.31,2.69.27.13.07.27.14.4.21l.32-.24c.23.08.45.17.68.25.11-.08.22-.16.32-.24.13.07.27.14.4.21l.32-.24c.13.07.27.14.4.21a9.694,9.694,0,0,1,2.61-.17c.27-.2.54-.4.81-.59-.04-.05-.08-.11-.12-.16.32-.39.23-.43.41-.8-.08-.11-.16-.22-.24-.32Z" transform="translate(-541.287 -378.121)" fill="none" stroke="#f39b13" stroke-width="1"/>
</svg>
