<svg xmlns="http://www.w3.org/2000/svg"  viewBox="0 0 619.657 152.221">
  <path id="Path_426" data-name="Path 426" d="M1520.953,1039.95c-2.59-4.2-5.334-8.409-8.151-12.5l2.471-1.7c2.846,4.133,5.617,8.382,8.235,12.628Zm-16.923-24.574c-3-3.924-6.152-7.835-9.36-11.623l2.289-1.94c3.24,3.826,6.42,7.777,9.453,11.741ZM1484.754,992.6c-3.373-3.614-6.886-7.2-10.442-10.666l2.094-2.148c3.589,3.5,7.136,7.119,10.541,10.768Zm-21.379-20.825c-3.706-3.285-7.541-6.527-11.4-9.636l1.883-2.336c3.894,3.138,7.765,6.412,11.506,9.726ZM1017.357,960.65c-4.719,0-9.51-.2-14.234-.594l.249-2.99c4.642.388,9.349.584,13.99.584l.857,0,.02,3Zm15.966-.618-.22-2.992c4.924-.361,9.91-.888,14.82-1.564l.409,2.973c-4.973.684-10.023,1.217-15.009,1.583m-45.209-1.9c-5.026-.875-10-1.983-14.783-3.293l.792-2.893c4.693,1.284,9.573,2.371,14.505,3.231Zm75.1-2.212-.6-2.94c4.851-.984,9.73-2.135,14.505-3.421l.781,2.9c-4.835,1.3-9.778,2.469-14.689,3.465m376.927-2.884c-3.995-2.928-8.113-5.8-12.242-8.546l1.66-2.5c4.167,2.768,8.323,5.669,12.355,8.624ZM958.933,950.09a127.316,127.316,0,0,1-13.789-6.33l1.416-2.645a124.3,124.3,0,0,0,13.463,6.18Zm133.409-2.019-.961-2.842c4.692-1.588,9.389-3.344,13.958-5.22l1.139,2.775c-4.627,1.9-9.383,3.679-14.136,5.287m27.907-11.464-1.313-2.7q1.606-.781,3.2-1.592c3.1-1.571,6.373-3.317,10.009-5.338l1.457,2.623c-3.669,2.039-6.975,3.8-10.109,5.391q-1.616.82-3.245,1.613m295.028-.094c-4.246-2.55-8.61-5.038-12.971-7.4l1.426-2.639c4.4,2.377,8.8,4.888,13.09,7.461Zm-483.011-.82a93.764,93.764,0,0,1-11.539-9.934l2.14-2.1a90.731,90.731,0,0,0,11.17,9.614Zm456.747-13.371c-4.464-2.155-9.036-4.235-13.59-6.183l1.18-2.757c4.595,1.965,9.21,4.064,13.715,6.239Zm-242.366-.185-1.508-2.594.882-.513c3.968-2.308,8.072-4.693,12.14-6.976l1.469,2.615c-4.049,2.273-8.142,4.653-12.1,6.955ZM911.076,913.96a77.679,77.679,0,0,1-7.225-13.44l2.769-1.152a74.677,74.677,0,0,0,6.946,12.919Zm450.487-3.373c-4.65-1.74-9.394-3.392-14.1-4.908l.92-2.856c4.752,1.531,9.54,3.2,14.232,4.953ZM1172.8,907.656l-1.335-2.687c4.869-2.419,9.383-4.442,13.8-6.183l1.1,2.791c-4.336,1.709-8.774,3.7-13.565,6.079m160.347-6.223c-4.793-1.3-9.67-2.5-14.495-3.566l.646-2.93c4.872,1.077,9.795,2.287,14.634,3.6Zm-132.71-4.537-.792-2.892c4.713-1.291,9.684-2.4,14.775-3.283l.515,2.955c-5,.871-9.876,1.955-14.5,3.22m103.566-1.9c-4.9-.839-9.871-1.564-14.766-2.156l.36-2.979c4.944.6,9.961,1.331,14.912,2.178Zm-74.319-3.281-.282-2.987c4.8-.453,9.864-.764,15.064-.925l.093,3c-5.136.16-10.141.467-14.875.914m44.7-.3c-4.947-.352-9.961-.582-14.9-.683l.061-3c4.992.1,10.058.335,15.055.691Z" transform="translate(-903.851 -887.729)" fill="#4588bb"/>
</svg>
