<svg xmlns="http://www.w3.org/2000/svg" width="466.669" height="802.572" viewBox="0 0 466.669 802.572">
  <path id="Path_418" data-name="Path 418" d="M1770.7,1552.523c-3.789,0-7.593-.189-11.305-.562l.3-2.984a111.647,111.647,0,0,0,14.782.482l.1,3q-1.938.066-3.876.066m18.978-1.516-.469-2.963a131.533,131.533,0,0,0,14.482-3.149l.8,2.891a134.644,134.644,0,0,1-14.812,3.221m-45.249-1.512a128.638,128.638,0,0,1-14.591-4.124l.992-2.832a125.257,125.257,0,0,0,14.249,4.026Zm74.428-6.5-1.09-2.8c4.53-1.77,9.093-3.809,13.561-6.059l1.35,2.68c-4.552,2.292-9.2,4.369-13.821,6.174m-102.969-3.667a82.333,82.333,0,0,1-12.787-8.306l1.867-2.348a79.337,79.337,0,0,0,12.323,8Zm535.285-7.843c-.841.033-1.647-.007-2.473-.025l.063-3c.8.017,1.583.039,2.41.025a116.256,116.256,0,0,0,12.36-.66l.32,2.982a118.876,118.876,0,0,1-12.68.678m-17.592-1.249a140.438,140.438,0,0,1-14.867-2.937l.737-2.908a137.471,137.471,0,0,0,14.548,2.874Zm-387.706-.806-1.576-2.553c4.173-2.578,8.317-5.382,12.318-8.336l1.781,2.415c-4.067,3-8.28,5.852-12.523,8.474m432.9-1.218-.705-2.916a116.828,116.828,0,0,0,14.1-4.375l1.068,2.8a119.778,119.778,0,0,1-14.467,4.487m-74.533-5.349c-1.782-.64-3.6-1.326-5.4-2.042-2.833-1.125-5.723-2.374-8.593-3.713l1.27-2.719c2.815,1.315,5.652,2.54,8.43,3.643,1.771.7,3.558,1.379,5.309,2.007Zm-512-2.608a61.747,61.747,0,0,1-8.036-13.049l2.734-1.241a58.469,58.469,0,0,0,7.645,12.415Zm614.811-2.763-1.393-2.659a137.212,137.212,0,0,0,12.721-7.586l1.671,2.491a140.378,140.378,0,0,1-13,7.754m-436.851-5.989-1.967-2.265q1.63-1.416,3.225-2.865c2.56-2.328,5.14-4.783,7.668-7.3l2.116,2.127c-2.56,2.547-5.174,5.033-7.766,7.39q-1.618,1.475-3.276,2.911m306.628-1.35c-4.193-2.382-8.405-4.956-12.875-7.869l1.638-2.514c4.419,2.88,8.58,5.423,12.719,7.773Zm155.355-9.45-1.906-2.319c3.733-3.064,7.457-6.4,11.068-9.921l2.094,2.149c-3.672,3.578-7.459,6.972-11.256,10.091m-180.662-6.92c-3.618-2.579-7.471-5.4-12.127-8.889l1.8-2.4c4.636,3.471,8.471,6.283,12.071,8.847Zm-471.827-1.231a64.471,64.471,0,0,1-.946-11.049c0-1.4.044-2.828.133-4.243l2.995.188c-.085,1.353-.128,2.718-.128,4.055a61.613,61.613,0,0,0,.9,10.534Zm211.929-2.289-2.23-2.006c3.181-3.539,6.449-7.353,9.712-11.336l2.321,1.9c-3.292,4.018-6.59,7.868-9.8,11.441m462.226-10.6-2.249-1.987c3.214-3.638,6.405-7.506,9.483-11.495l2.375,1.834c-3.119,4.04-6.352,7.959-9.609,11.648m-226.417-3.79c-3.948-2.933-8.039-5.847-12.158-8.664l1.692-2.476c4.153,2.838,8.274,5.775,12.254,8.731ZM1910.739,1467l-2.387-1.818c2.844-3.733,5.757-7.666,8.9-12.022l2.431,1.757c-3.163,4.376-6.089,8.329-8.949,12.083m-226.39-4-2.888-.808a82.144,82.144,0,0,1,5.482-14.237l2.69,1.33a79.188,79.188,0,0,0-5.284,13.715m418.433-3.979c-4.159-2.617-8.46-5.215-12.782-7.721l1.5-2.595c4.354,2.524,8.686,5.14,12.877,7.777Zm269.531-3.223-2.478-1.691c2.748-4.028,5.467-8.251,8.081-12.552l2.563,1.559c-2.641,4.344-5.387,8.612-8.166,12.684m-295.366-11.756c-4.345-2.317-8.82-4.607-13.3-6.8l1.323-2.694c4.509,2.213,9.013,4.519,13.388,6.853Zm-148.556-1.368-2.455-1.722q3.571-5.091,7.12-10.2l1.46-2.1,2.462,1.715-1.46,2.1q-3.558,5.111-7.127,10.209m-231.131-5.991-2.43-1.76a98.744,98.744,0,0,1,9.866-11.584l2.129,2.116a95.2,95.2,0,0,0-9.565,11.228m352.867-5.807c-4.5-2.026-9.116-4.016-13.721-5.916l1.143-2.773c4.636,1.911,9.282,3.914,13.81,5.955ZM2388,1430.04l-2.634-1.433c2.338-4.3,4.644-8.765,6.851-13.281l2.7,1.318c-2.226,4.555-4.552,9.062-6.912,13.4m-365.5-10.559c-4.621-1.738-9.355-3.437-14.07-5.048l.97-2.839c4.743,1.621,9.506,3.329,14.157,5.078Zm-76.927-1.389-2.448-1.732c3.212-4.543,6.079-8.534,8.768-12.2l2.42,1.773c-2.678,3.652-5.537,7.63-8.74,12.159m-227.6-2.319-1.8-2.4a109.969,109.969,0,0,1,12.769-8.237l1.449,2.627a106.862,106.862,0,0,0-12.418,8.01m276.232-5.955c-4.732-1.458-9.563-2.867-14.355-4.188l.8-2.892c4.822,1.328,9.68,2.746,14.442,4.213Zm407.046-6.862-2.745-1.207c1.979-4.5,3.915-9.149,5.751-13.805l2.791,1.1c-1.851,4.692-3.8,9.372-5.8,13.911m-435.875-1.084c-4.81-1.173-9.716-2.294-14.58-3.331l.625-2.933c4.893,1.042,9.828,2.169,14.667,3.349Zm-221.588-.372-1.089-2.794a121.237,121.237,0,0,1,14.458-4.6l.732,2.91a118.19,118.19,0,0,0-14.1,4.486m192.333-5.857c-4.877-.889-9.841-1.719-14.755-2.465l.451-2.967c4.943.752,9.937,1.586,14.841,2.481Zm-163.642-1.606-.527-2.954c4.886-.871,9.889-1.666,14.87-2.362l.416,2.971c-4.945.691-9.91,1.48-14.759,2.345m190.834-.045-2.369-1.842c3.242-4.169,6.336-8,9.456-11.712l2.3,1.932c-3.1,3.681-6.166,7.482-9.384,11.622m-56.768-2.842c-4.93-.6-9.936-1.132-14.879-1.583l.273-2.988c4.972.454,10.008.99,14.967,1.592Zm-104.469-1.261-.309-2.984c4.939-.511,9.984-.945,15-1.288l.206,2.992c-4.979.343-9.99.772-14.894,1.28m74.672-1.455c-4.964-.3-9.993-.526-14.947-.672l.088-3c4.985.147,10.045.373,15.041.676Zm-44.849-.6-.106-3c4.968-.174,10.03-.268,15.048-.28l.007,3c-4.986.012-10.015.1-14.949.278m580.415-12.892-2.828-1c1.65-4.672,3.24-9.448,4.729-14.2l2.863.9c-1.5,4.78-3.1,9.59-4.764,14.295m-429.751-3.763-2.2-2.041c3.487-3.761,7.039-7.38,10.557-10.759l2.078,2.164c-3.477,3.338-6.987,6.916-10.436,10.636m21.505-20.613-1.937-2.291c3.792-3.208,7.766-6.366,11.811-9.389l1.794,2.4c-3.995,2.986-7.922,6.106-11.668,9.276m417.263-4.372-2.893-.8c1.322-4.79,2.574-9.666,3.722-14.492l2.918.693c-1.155,4.861-2.416,9.772-3.747,14.6m-393.4-13.489-1.659-2.5c4.129-2.737,8.431-5.425,12.785-7.991l1.525,2.584c-4.31,2.539-8.567,5.2-12.651,7.907m25.69-15.161-1.4-2.656c4.369-2.293,8.909-4.545,13.5-6.695l1.274,2.717c-4.549,2.13-9.049,4.363-13.376,6.634m374.676-.668-2.941-.588c.983-4.925,1.873-9.878,2.647-14.721l2.962.472c-.78,4.881-1.677,9.872-2.668,14.837m-347.642-12.012-1.157-2.768c4.547-1.9,9.258-3.763,14.005-5.534l1.048,2.81c-4.71,1.758-9.385,3.606-13.9,5.492m27.99-10.463-.947-2.847q2.83-.94,5.664-1.843l.911,2.86q-2.82.9-5.628,1.83m324.388-7.3-2.981-.346c.588-5.066,1.05-10.073,1.374-14.881l3,.2c-.328,4.855-.794,9.911-1.388,15.025" transform="matrix(-0.259, -0.966, 0.966, -0.259, -598.463, 2753.298)" fill="#4588bb"/>
</svg>
