<svg xmlns="http://www.w3.org/2000/svg" width="432.307" height="825.054" viewBox="0 0 432.307 825.054">
  <path id="Path_423" data-name="Path 423" d="M2399.2,825.051l-1.889-3.474c3.032-3.661,5.985-7.3,8.775-10.808l1.936,3.416c-2.807,3.531-5.774,7.187-8.822,10.866m20.168-25.617-2.01-3.318c3.809-5.127,7.473-10.262,10.89-15.265l2.1,3.191c-3.446,5.044-7.14,10.224-10.981,15.391m21.472-31.537-2.209-3.026c3.458-5.613,6.733-11.27,9.733-16.81l2.334,2.807c-3.039,5.615-6.356,11.344-9.858,17.029m18.9-35.084-2.475-2.528c2.883-6.272,5.512-12.6,7.814-18.823l2.627,2.161c-2.349,6.342-5.029,12.8-7.966,19.189m14.525-39.568-2.777-1.687c1.9-6.95,3.456-13.98,4.627-20.894l2.908,1.094c-1.2,7.116-2.805,14.345-4.758,21.488m7.32-43.835-2.989-.4c.231-3.868.348-7.787.348-11.644,0-3.424-.092-6.891-.273-10.3l2.991-.353c.187,3.53.282,7.114.282,10.656,0,3.99-.121,8.04-.359,12.041m-5.339-43.971a172.8,172.8,0,0,0-4.926-20.666l2.73-1.851a179.082,179.082,0,0,1,5.1,21.392Zm-12.093-39.866a163.288,163.288,0,0,0-9.044-17.419l2.238-2.977a168.065,168.065,0,0,1,9.306,17.922Zm-19.6-32.9a152.938,152.938,0,0,0-11.746-13.494l1.694-3.691a156.227,156.227,0,0,1,12.019,13.808Zm-274.462-24.528-.07-4.47c4.786-.167,9.8-.516,14.915-1.037l.205,4.461c-5.155.526-10.219.878-15.05,1.046m-15.079-.07c-5.141-.238-10.21-.714-15.065-1.412l.287-4.451c4.791.689,9.795,1.157,14.872,1.392Zm265.112-.392a134.253,134.253,0,0,0-13.414-9.49l1.149-4.13a136.774,136.774,0,0,1,13.686,9.683Zm-219.987-2.541-.314-4.446c4.774-.748,9.633-1.617,14.851-2.659l.4,4.433c-5.248,1.046-10.133,1.921-14.936,2.673m-75.167-1.462a128.22,128.22,0,0,1-14.779-4.789l.766-4.324a125.377,125.377,0,0,0,14.525,4.706Zm104.981-4.425-.461-4.419,1.508-.349c4.422-1.031,8.854-2.1,13.293-3.181l.482,4.413c-4.444,1.081-8.882,2.152-13.313,3.185Zm29.626-7.143-.481-4.413c5.816-1.406,10.53-2.512,14.834-3.483l.449,4.421c-4.294.969-9,2.073-14.8,3.476M2095.75,492.1c-3.5-1.933-6.979-4.074-10.328-6.365-1.234-.845-2.444-1.71-3.594-2.571l1.345-4c1.12.838,2.3,1.681,3.5,2.5,3.28,2.243,6.684,4.34,10.117,6.233Zm296.976-1.353a108.226,108.226,0,0,0-14.4-5.3l.568-4.391a110.486,110.486,0,0,1,14.7,5.414Zm-103.529-5.26-.391-4.434c5.3-1.039,10.186-1.9,14.94-2.623l.306,4.448c-4.725.721-9.585,1.576-14.855,2.61m74.418-3.357a147.8,147.8,0,0,0-14.85-1.71l.131-4.467a150.551,150.551,0,0,1,15.055,1.732Zm-44.673-1.113-.192-4.463c5.168-.49,10.235-.794,15.061-.9l.045,4.472c-4.777.107-9.795.408-14.914.894m-250.13-9.706a74.232,74.232,0,0,1-10.952-16.08l2.4-2.676a70.1,70.1,0,0,0,10.353,15.183Zm-17.781-36.763a85.055,85.055,0,0,1-1.4-15.408c0-2.518.111-5.081.328-7.618l2.977.568c-.2,2.349-.3,4.722-.3,7.05a78.546,78.546,0,0,0,1.292,14.221Zm6.138-43.05-2.7-1.941a117.718,117.718,0,0,1,8.23-19.232l2.345,2.787a112.569,112.569,0,0,0-7.872,18.386m18.005-34.355-2.013-3.312a141.163,141.163,0,0,1,11.905-14.059l1.711,3.673a137.772,137.772,0,0,0-11.6,13.7m24.256-25.2L2098.022,328a112,112,0,0,1,9.921-7.044q1.918-1.207,3.85-2.376l1.129,4.144q-1.913,1.156-3.813,2.352a109.027,109.027,0,0,0-9.679,6.873m27.453-17.094-.994-4.22c4.72-2.468,9.543-4.8,14.337-6.928l.855,4.285c-4.747,2.108-9.524,4.416-14.2,6.862m28.6-12.7-.717-4.342c4.856-1.783,9.809-3.413,14.716-4.844l.576,4.388c-4.86,1.418-9.765,3.032-14.575,4.8m29.295-8.611-.459-4.419c4.445-1.027,9.176-2.029,14.885-3.152l.393,4.434c-5.687,1.119-10.4,2.115-14.819,3.138m29.689-5.967-.375-4.436c4.749-.893,9.809-1.85,14.861-2.881l.406,4.431c-5.066,1.033-10.134,1.991-14.892,2.886m29.768-6.2-.489-4.412c5.29-1.3,10.089-2.635,14.676-4.081l.621,4.376c-4.632,1.459-9.475,2.805-14.808,4.117m29.471-9.428-.8-4.308a146.252,146.252,0,0,0,14.162-6.767l1.035,4.2a148.818,148.818,0,0,1-14.393,6.876m28.347-15.66-1.318-4.017a104.017,104.017,0,0,0,12.762-11.1l1.692,3.694a107.223,107.223,0,0,1-13.136,11.422m25.084-25.418-2.006-3.322a154.482,154.482,0,0,0,10.311-15.807l2.287,2.893a158.209,158.209,0,0,1-10.592,16.236m19.591-34.5L2344.19,194a167.272,167.272,0,0,0,6.821-19.466l2.766,1.732a172.826,172.826,0,0,1-7.046,20.112m11.621-41.816-2.938-.912a141.949,141.949,0,0,0,1.387-19.572q0-1.062-.017-2.123l3-.107q.016,1.113.017,2.23a148.556,148.556,0,0,1-1.449,20.485m-3.76-44.083a112.423,112.423,0,0,0-3.294-12.9c-.764-2.389-1.609-4.753-2.51-7.028l2.582-2.276c.947,2.389,1.834,4.873,2.635,7.378a118.154,118.154,0,0,1,3.47,13.591Zm-14.685-37.189a87.162,87.162,0,0,0-11.292-13.917l1.672-3.713a90.865,90.865,0,0,1,11.768,14.509Zm-24.184-24.575a104.668,104.668,0,0,0-13.827-7.927l.918-4.257a106.873,106.873,0,0,1,14.159,8.119Zm-28.177-13.726c-4.554-1.544-9.48-2.957-14.641-4.2l.478-4.415c5.224,1.26,10.213,2.69,14.829,4.255Zm-29.439-7.234c-3.367-.584-6.868-1.13-10.7-1.671l-4.194-.59.284-4.452,4.192.592c3.857.543,7.379,1.093,10.768,1.68Zm-29.829-4.366-14.935-2.1.283-4.451,14.933,2.1Zm-29.867-4.208-14.935-2.1.283-4.452,14.933,2.1Zm-29.868-4.209-14.934-2.1.283-4.451,14.933,2.1Zm-29.866-4.208-14.934-2.1.283-4.452,14.932,2.1ZM2108.81,6.552l-14.935-2.1L2094.159,0l14.932,2.1Z" transform="translate(-2049.631 0.003)" fill="#4588bb"/>
</svg>
