<svg xmlns="http://www.w3.org/2000/svg" width="1049.576" height="516.958" viewBox="0 0 1049.576 516.958">
  <path id="Path_419" data-name="Path 419" d="M947.361,1607.55q2.481,0,4.965-.021l-.025-3c-5,.042-10.037.022-14.962-.065l-.051,3c3.318.056,6.707.086,10.073.086m19.995-.314c4.848-.146,9.9-.35,15.017-.6l-.149-3c-5.1.254-10.13.458-14.959.6Zm-45.108-.246.138-3c-5.031-.232-10.053-.542-14.926-.923l-.233,2.99c4.905.384,9.959.7,15.021.929m75.125-1.232c4.817-.321,9.857-.691,14.981-1.1l-.24-2.99c-5.11.41-10.137.78-14.939,1.1Zm-105.134-1.132.34-2.981c-5.013-.571-10-1.237-14.811-1.978l-.456,2.965c4.854.748,9.876,1.419,14.927,1.994m135.077-1.26q7.485-.685,14.944-1.435l-.3-2.984q-7.445.744-14.919,1.431Zm29.873-2.974q7.482-.792,14.918-1.607l-.325-2.983q-7.431.812-14.909,1.608Zm-194.715-.363.582-2.943c-4.924-.974-9.828-2.061-14.575-3.23l-.718,2.912c4.793,1.182,9.742,2.279,14.711,3.261m-29.251-7.223.861-2.873c-4.786-1.434-9.554-3-14.17-4.653L818.9,1588.1c4.666,1.671,9.484,3.253,14.321,4.7m-28.368-10.172,1.166-2.763c-4.588-1.937-9.152-4.018-13.564-6.187l-1.324,2.692c4.464,2.2,9.08,4.3,13.722,6.258m-27.069-13.3,1.474-2.613c-4.252-2.4-8.555-4.984-12.79-7.68l-1.612,2.531c4.281,2.724,8.63,5.335,12.928,7.762m-25.437-16.156,1.729-2.452c-3.962-2.8-8-5.78-12.006-8.869l-1.832,2.375c4.038,3.115,8.112,6.125,12.109,8.946m-23.844-18.359,1.919-2.307c-3.7-3.08-7.511-6.358-11.326-9.744l-1.991,2.244c3.838,3.407,7.673,6.706,11.4,9.807M706,1514.883l2.049-2.192c-3.474-3.249-7.113-6.727-10.813-10.337l-2.095,2.149c3.716,3.624,7.369,7.116,10.859,10.38m-674.518-4.32,2.641-1.422a75.491,75.491,0,0,1-5.66-13.551l-2.867.88a78.4,78.4,0,0,0,5.886,14.093m653-16.634,2.128-2.115c-3.29-3.31-6.723-6.806-10.5-10.687l-2.151,2.091c3.782,3.889,7.223,7.392,10.52,10.711M22.728,1481.446l2.991-.228c-.125-1.636-.188-3.3-.188-4.954a68,68,0,0,1,.7-9.676l-2.968-.43a70.78,70.78,0,0,0-.735,10.106c0,1.727.066,3.471.2,5.182m640.806-9.02,2.163-2.08q-3.41-3.546-6.816-7.1l-3.571-3.723-2.164,2.078,3.571,3.722q3.408,3.552,6.817,7.1M29.768,1452.335a92.61,92.61,0,0,1,6.005-13.468l-2.638-1.43a95.826,95.826,0,0,0-6.2,13.906Zm612.976-1.539,2.156-2.086c-3.845-3.977-7.275-7.494-10.486-10.754l-2.137,2.1c3.2,3.253,6.628,6.765,10.467,10.735m-21.051-21.345,2.108-2.135c-3.706-3.661-7.337-7.184-10.791-10.472l-2.068,2.174c3.441,3.275,7.058,6.784,10.751,10.433M43.682,1426.36c2.022-2.789,4.227-5.586,6.553-8.311q1.386-1.621,2.8-3.209l-2.237-2q-1.44,1.611-2.848,3.258c-2.378,2.786-4.633,5.646-6.7,8.5Zm556.295-17.535,2.014-2.223c-3.819-3.462-7.618-6.809-11.291-9.949l-1.95,2.281c3.652,3.12,7.429,6.449,11.227,9.891m-536.614-4.7c3.513-3.383,7.241-6.73,11.08-9.947l-1.927-2.3c-3.892,3.26-7.671,6.653-11.234,10.085Zm513.861-14.714,1.869-2.346c-3.99-3.179-8.013-6.257-11.958-9.15l-1.775,2.42c3.913,2.869,7.905,5.923,11.864,9.076m-491.059-4.433c3.907-2.876,8.032-5.733,12.259-8.493l-1.639-2.512c-4.275,2.79-8.447,5.68-12.4,8.589Zm466.969-13.2,1.663-2.5c-4.231-2.817-8.516-5.523-12.737-8.038l-1.537,2.576c4.179,2.491,8.422,5.169,12.611,7.958m-442.009-3.134c4.178-2.44,8.572-4.879,13.06-7.246l-1.4-2.654c-4.526,2.388-8.958,4.847-13.173,7.31ZM527.5,1356.514l1.4-2.652c-4.37-2.308-8.912-4.563-13.5-6.705l-1.269,2.719c4.543,2.121,9.04,4.354,13.367,6.638m-389.971-1.836c4.325-2.081,8.893-4.189,13.577-6.266l-1.216-2.742c-4.712,2.089-9.309,4.211-13.662,6.3Zm362.935-10.8,1.145-2.774c-4.545-1.876-9.266-3.711-14.034-5.454l-1.03,2.819c4.729,1.728,9.412,3.547,13.919,5.409m-335.6-1.343c4.278-1.767,8.842-3.488,13.953-5.264l-.984-2.834c-5.166,1.794-9.783,3.536-14.114,5.325Zm307.556-8.928.925-2.853c-4.635-1.5-9.475-2.982-14.388-4.4l-.831,2.883c4.881,1.406,9.69,2.876,14.294,4.367m-279.39-.985c4.865-1.517,9.9-3.025,14.345-4.358l-.861-2.873c-4.451,1.334-9.495,2.846-14.376,4.367Zm250.67-7.312.748-2.9c-4.661-1.2-9.574-2.4-14.6-3.568l-.678,2.922c5,1.161,9.895,2.356,14.533,3.55m-221.951-1.4c5.384-1.668,10.066-3.186,14.312-4.64l-.972-2.838c-4.218,1.445-8.872,2.954-14.227,4.613Zm192.8-5.377.618-2.935c-4.678-.987-9.632-1.988-14.723-2.976l-.572,2.945c5.076.986,10.014,1.984,14.677,2.966M250.2,1314.048c4.985-2,9.5-3.994,13.814-6.1l-1.319-2.695c-4.243,2.077-8.7,4.044-13.611,6.012Zm134.953-1.249.536-2.952q-7.379-1.34-14.781-2.618l-.513,2.955q7.389,1.282,14.758,2.615m-29.537-5.136.5-2.959-14.795-2.487-.5,2.959Zm-29.59-5,.507-2.957q-7.394-1.267-14.768-2.582l-.529,2.953q7.384,1.322,14.79,2.586m-48.75-2.019c2.808-1.742,5.515-3.567,8.089-5.454,3.592.723,7.311,1.449,11.1,2.169l.559-2.947c-2.872-.546-5.7-1.1-8.471-1.645q.558-.441,1.108-.885l-1.887-2.332q-1.522,1.233-3.125,2.435-1.172-.237-2.323-.475l-.522,2.545q-2.953,2.082-6.109,4.04Zm-10.248-9.352.66-2.926c-5.024-1.134-9.917-2.313-14.543-3.5l-.749,2.9c4.656,1.2,9.579,2.386,14.632,3.526m-29.148-7.548.857-2.875c-4.887-1.457-9.671-3-14.219-4.581l-.986,2.834c4.59,1.6,9.418,3.152,14.348,4.622m62.844-2.308a95.782,95.782,0,0,0,9.279-12.065l-2.517-1.633a92.611,92.611,0,0,1-8.987,11.685Zm-91.3-7.648,1.138-2.776c-4.689-1.922-9.269-3.964-13.614-6.074l-1.31,2.7c4.4,2.136,9.04,4.206,13.786,6.151m-27.135-13.218,1.5-2.6c-4.345-2.508-8.575-5.178-12.575-7.936l-1.7,2.469c4.065,2.8,8.364,5.517,12.778,8.065M317.256,1256a101.616,101.616,0,0,0,5.109-14.324l-2.893-.795a98.562,98.562,0,0,1-4.957,13.9Zm-159.8-12.6,1.913-2.31c-3.825-3.167-7.522-6.528-10.99-9.988l-2.119,2.123c3.533,3.526,7.3,6.95,11.2,10.175m167.879-16.627a114.351,114.351,0,0,0,.9-14.35l0-.815-3,.022,0,.79a111.351,111.351,0,0,1-.876,13.974Zm-189.265-4.734,2.312-1.912c-3.034-3.667-5.947-7.535-8.657-11.5l-.254-.373-2.485,1.681.261.384c2.763,4.039,5.732,7.982,8.823,11.718m-16.82-25.155,2.67-1.368a111.832,111.832,0,0,1-5.873-13.575l-2.828,1a115.187,115.187,0,0,0,6.031,13.941m202.935-.017,2.973-.4a124.071,124.071,0,0,0-2.948-14.887l-2.9.762a121.128,121.128,0,0,1,2.877,14.525m-7.5-28.6,2.788-1.107a123.671,123.671,0,0,0-6.46-13.733l-2.631,1.443a120.754,120.754,0,0,1,6.3,13.4m-205.443-.023,2.95-.547a75.365,75.365,0,0,1-1.3-13.66c0-.32,0-.642.007-.962l-3-.045c0,.336-.007.671-.007,1.007a78.41,78.41,0,0,0,1.352,14.207m191.22-25.876,2.427-1.764a114.555,114.555,0,0,0-9.723-11.668l-2.171,2.071a111.442,111.442,0,0,1,9.467,11.361m-187.611-3.752a51.135,51.135,0,0,1,5.7-13.354l-2.561-1.562a54.117,54.117,0,0,0-6.041,14.137Zm167.227-17.565,1.86-2.354a104.625,104.625,0,0,0-9.4-6.623q-1.573-.984-3.176-1.92l-1.513,2.59q1.562.912,3.1,1.874a101.428,101.428,0,0,1,9.125,6.433m-152.306-7.029a62.455,62.455,0,0,1,11.833-8.568l-1.475-2.613a65.4,65.4,0,0,0-12.4,8.984Zm126.873-7.992,1.2-2.748a141.859,141.859,0,0,0-14.19-5.315l-.9,2.861a138.58,138.58,0,0,1,13.889,5.2m-101.6-6.538a103.679,103.679,0,0,1,14.3-3.731l-.555-2.948a106.753,106.753,0,0,0-14.713,3.841Zm73.348-2.41.614-2.936c-4.864-1.018-9.89-1.828-14.94-2.409l-.342,2.982c4.958.568,9.893,1.364,14.668,2.363m-44.348-3.175c2.505-.17,5.059-.272,7.589-.3,2.42-.028,4.868-.01,7.262.056l.084-3c-2.431-.07-4.918-.088-7.382-.058-2.586.03-5.2.134-7.756.31Z" transform="translate(-22.531 -1090.592)" fill="#4588bb"/>
</svg>
