<svg xmlns="http://www.w3.org/2000/svg" width="238.805" height="49.136" viewBox="0 0 238.805 49.136">
  <g id="Group_320" data-name="Group 320" transform="translate(-260 -2.419)">
    <path id="Path_35" d="M347.4,100.9a1.32,1.32,0,0,1,.06-.39.866.866,0,0,1,.14-.27.526.526,0,0,1,.2-.16.847.847,0,0,1,.24-.08c.06-.01.13-.03.22-.04s.19-.03.31-.04.28-.02.46-.03.4,0,.66,0a4.117,4.117,0,0,1,1.39.21,2.559,2.559,0,0,1,.89.55,1.9,1.9,0,0,1,.48.79,3.115,3.115,0,0,1-.01,1.91,1.953,1.953,0,0,1-.49.77,2.19,2.19,0,0,1-.86.5,3.727,3.727,0,0,1-1.24.18h-.32l-.29-.02a.687.687,0,0,1-.22-.03c-.04,0-.08-.01-.12-.01v2.29h-1.5v-6.12Zm1.5,2.39.23.04a4.709,4.709,0,0,0,.53.03,2.3,2.3,0,0,0,.69-.09.987.987,0,0,0,.41-.23.825.825,0,0,0,.2-.32,1.409,1.409,0,0,0,.05-.35,1.317,1.317,0,0,0-.04-.34.683.683,0,0,0-.18-.32,1.042,1.042,0,0,0-.4-.25,2.141,2.141,0,0,0-.71-.1c-.22,0-.39,0-.53.01a.828.828,0,0,0-.25.03v1.9Z" transform="translate(-87.09 -97.05)"/>
    <path id="Path_36" d="M353.66,103.74a2.683,2.683,0,0,1,.15-.89,1.906,1.906,0,0,1,.42-.66,1.616,1.616,0,0,1,.65-.4,2.629,2.629,0,0,1,.83-.14,2.277,2.277,0,0,1,.86.13,1.2,1.2,0,0,1,.45.29.8.8,0,0,1,.13.22.857.857,0,0,1,.05.27.967.967,0,0,1-.04.29,1.145,1.145,0,0,1-.1.23.657.657,0,0,1-.12.17c-.04.05-.06.08-.08.1a2.5,2.5,0,0,0-.38-.15,1.614,1.614,0,0,0-.49-.07.882.882,0,0,0-.6.23,1.023,1.023,0,0,0-.25.75v2.92h-1.49v-3.27Z" transform="translate(-87.09 -97.05)"/>
    <path id="Path_37" d="M359.48,105.09a.513.513,0,0,0,.1.24.919.919,0,0,0,.22.22.948.948,0,0,0,.37.16,2.482,2.482,0,0,0,.54.06,1.726,1.726,0,0,0,.45-.05c.12-.03.25-.06.37-.1a2,2,0,0,0,.26-.1.746.746,0,0,0,.12-.07l.52,1.15s-.13.08-.24.14c-.14.07-.28.13-.43.19a4.208,4.208,0,0,1-.61.16,3.909,3.909,0,0,1-.76.07,2.5,2.5,0,0,1-.97-.19,2.144,2.144,0,0,1-.79-.54,2.577,2.577,0,0,1-.53-.87,3.092,3.092,0,0,1-.19-1.17,3.352,3.352,0,0,1,.19-1.13,2.542,2.542,0,0,1,.54-.87,2.465,2.465,0,0,1,.8-.56,2.663,2.663,0,0,1,1-.2,2.742,2.742,0,0,1,.9.15,1.9,1.9,0,0,1,.67.4,1.677,1.677,0,0,1,.56,1.26,1.989,1.989,0,0,1-.12.68,1.128,1.128,0,0,1-.43.51,2.323,2.323,0,0,1-.84.32,6.834,6.834,0,0,1-1.35.11h-.32Zm-.07-1.07a7.718,7.718,0,0,0,.96-.05,1.739,1.739,0,0,0,.51-.13.34.34,0,0,0,.2-.19.779.779,0,0,0,.04-.21.49.49,0,0,0-.18-.37.777.777,0,0,0-.53-.16.976.976,0,0,0-.44.1,1.067,1.067,0,0,0-.31.25,1.246,1.246,0,0,0-.26.75" transform="translate(-87.09 -97.05)"/>
    <path id="Path_38" d="M363.99,105.42a1.275,1.275,0,0,0,.25.15,2.05,2.05,0,0,0,.41.16,3.27,3.27,0,0,0,.54.13,3.36,3.36,0,0,0,.63.06,1.827,1.827,0,0,0,.57-.08.267.267,0,0,0,.19-.27.276.276,0,0,0-.16-.28,2.165,2.165,0,0,0-.5-.13l-.48-.06a4.154,4.154,0,0,1-.7-.15,1.908,1.908,0,0,1-.59-.29,1.353,1.353,0,0,1-.4-.49,1.6,1.6,0,0,1-.15-.75,2.06,2.06,0,0,1,.12-.7,1.384,1.384,0,0,1,.39-.56,1.984,1.984,0,0,1,.68-.38,3,3,0,0,1,.99-.14,5.546,5.546,0,0,1,1,.08,2.454,2.454,0,0,1,.73.26.842.842,0,0,1,.28.25.662.662,0,0,1,.11.36.717.717,0,0,1-.06.29,1.022,1.022,0,0,1-.14.22.673.673,0,0,1-.15.14c-.05.03-.08.06-.09.06a1.527,1.527,0,0,0-.48-.27,4.1,4.1,0,0,0-.5-.14,3.682,3.682,0,0,0-.66-.06,1.06,1.06,0,0,0-.58.11.331.331,0,0,0-.16.28.275.275,0,0,0,.15.25,1.69,1.69,0,0,0,.44.12l.84.13a3.2,3.2,0,0,1,.61.15,1.747,1.747,0,0,1,.52.28,1.375,1.375,0,0,1,.36.47,1.837,1.837,0,0,1-.46,2.04,2.462,2.462,0,0,1-1.64.48,5.291,5.291,0,0,1-.97-.08,6.019,6.019,0,0,1-.73-.19,2.5,2.5,0,0,1-.5-.23,1.511,1.511,0,0,1-.26-.18l.53-1.07Z" transform="translate(-87.09 -97.05)"/>
    <path id="Path_39" d="M370.67,105.09a.513.513,0,0,0,.1.24.919.919,0,0,0,.22.22.972.972,0,0,0,.36.16,2.482,2.482,0,0,0,.54.06,1.726,1.726,0,0,0,.45-.05c.12-.03.25-.06.37-.1a2,2,0,0,0,.26-.1.746.746,0,0,0,.12-.07l.52,1.15s-.13.08-.25.14c-.14.07-.28.13-.43.19a4.208,4.208,0,0,1-.61.16,3.909,3.909,0,0,1-.76.07,2.5,2.5,0,0,1-.97-.19,2.144,2.144,0,0,1-.79-.54,2.577,2.577,0,0,1-.53-.87,3.3,3.3,0,0,1-.19-1.17,3.352,3.352,0,0,1,.19-1.13,2.542,2.542,0,0,1,.54-.87,2.465,2.465,0,0,1,.8-.56,2.663,2.663,0,0,1,1-.2,2.742,2.742,0,0,1,.9.15,1.9,1.9,0,0,1,.67.4,1.677,1.677,0,0,1,.56,1.26,1.989,1.989,0,0,1-.12.68,1.128,1.128,0,0,1-.43.51,2.323,2.323,0,0,1-.84.32,6.873,6.873,0,0,1-1.36.11h-.32Zm-.07-1.07a7.718,7.718,0,0,0,.96-.05,1.739,1.739,0,0,0,.51-.13.34.34,0,0,0,.2-.19.779.779,0,0,0,.04-.21.459.459,0,0,0-.18-.37.777.777,0,0,0-.53-.16.907.907,0,0,0-.43.1,1.067,1.067,0,0,0-.31.25,1.246,1.246,0,0,0-.26.75" transform="translate(-87.09 -97.05)"/>
    <path id="Path_40" d="M374.79,103.85a2.547,2.547,0,0,1,.18-.95,1.942,1.942,0,0,1,.51-.69,2.135,2.135,0,0,1,.75-.42,3.009,3.009,0,0,1,1.83,0,2.135,2.135,0,0,1,.75.42,1.884,1.884,0,0,1,.5.69,2.2,2.2,0,0,1,.18.95v3.17H378v-2.79a1.263,1.263,0,0,0-.22-.8.779.779,0,0,0-.64-.26c-.58,0-.87.36-.87,1.07v2.79h-1.49v-3.17Z" transform="translate(-87.09 -97.05)"/>
    <path id="Path_41" d="M380.97,100.98a.683.683,0,0,1,.21-.56.857.857,0,0,1,.56-.16,1.367,1.367,0,0,1,.45.07,2.249,2.249,0,0,1,.26.09v1.38h1.06a.8.8,0,0,1,.59.19.779.779,0,0,1,.18.55,1.678,1.678,0,0,1-.07.5c-.03.1-.07.2-.11.3h-1.65v1.61a.9.9,0,0,0,.07.37.691.691,0,0,0,.16.22.57.57,0,0,0,.22.11,1.068,1.068,0,0,0,.25.03,1.267,1.267,0,0,0,.47-.09,1.4,1.4,0,0,0,.3-.15l.58,1.13a1.546,1.546,0,0,1-.24.19,1.928,1.928,0,0,1-.38.19,2.911,2.911,0,0,1-.5.16,2.3,2.3,0,0,1-.58.07,1.775,1.775,0,0,1-1.36-.51,1.892,1.892,0,0,1-.49-1.36v-4.32Z" transform="translate(-87.09 -97.05)"/>
    <path id="Path_42" d="M386.75,105.09a.513.513,0,0,0,.1.24.919.919,0,0,0,.22.22.948.948,0,0,0,.37.16,2.482,2.482,0,0,0,.54.06,1.726,1.726,0,0,0,.45-.05c.12-.03.25-.06.37-.1a2,2,0,0,0,.26-.1.746.746,0,0,0,.12-.07l.52,1.15c-.08.05-.16.1-.24.14-.14.07-.28.13-.43.19a4.439,4.439,0,0,1-.6.16,3.909,3.909,0,0,1-.76.07,2.5,2.5,0,0,1-.97-.19,2.144,2.144,0,0,1-.79-.54,2.577,2.577,0,0,1-.53-.87,3.092,3.092,0,0,1-.19-1.17,3.352,3.352,0,0,1,.19-1.13,2.542,2.542,0,0,1,.54-.87,2.465,2.465,0,0,1,.8-.56,2.663,2.663,0,0,1,1-.2,2.742,2.742,0,0,1,.9.15,1.9,1.9,0,0,1,.67.4,1.677,1.677,0,0,1,.56,1.26,1.989,1.989,0,0,1-.12.68,1.128,1.128,0,0,1-.43.51,2.323,2.323,0,0,1-.84.32,6.834,6.834,0,0,1-1.35.11h-.32Zm-.07-1.07a7.718,7.718,0,0,0,.96-.05,1.739,1.739,0,0,0,.51-.13.34.34,0,0,0,.2-.19.779.779,0,0,0,.04-.21.459.459,0,0,0-.18-.37.777.777,0,0,0-.53-.16.907.907,0,0,0-.43.1,1.067,1.067,0,0,0-.31.25,1.246,1.246,0,0,0-.26.75" transform="translate(-87.09 -97.05)"/>
    <path id="Path_43" d="M395.95,104.17a4.91,4.91,0,0,1-.12,1.14,2.631,2.631,0,0,1-.34.81,2.419,2.419,0,0,1-.9.78,2.813,2.813,0,0,1-1.21.27,2.477,2.477,0,0,1-1.82-.76,2.543,2.543,0,0,1-.54-.87,3.319,3.319,0,0,1-.2-1.13,3.565,3.565,0,0,1,.18-1.13,2.676,2.676,0,0,1,.49-.87,2.228,2.228,0,0,1,.73-.56,2.1,2.1,0,0,1,.89-.2,1.659,1.659,0,0,1,.85.19,2.027,2.027,0,0,1,.5.37v-2.02a.683.683,0,0,1,.21-.56.857.857,0,0,1,.56-.16,1.408,1.408,0,0,1,.45.07,1.44,1.44,0,0,1,.25.09v4.55Zm-2.53,1.48a.992.992,0,0,0,.76-.33,1.278,1.278,0,0,0,.3-.9,1.687,1.687,0,0,0-.08-.5,1.2,1.2,0,0,0-.22-.4,1.128,1.128,0,0,0-.34-.27.907.907,0,0,0-.43-.1.949.949,0,0,0-.76.35,1.369,1.369,0,0,0-.3.91,1.269,1.269,0,0,0,.3.89.968.968,0,0,0,.76.34" transform="translate(-87.09 -97.05)"/>
    <path id="Path_44" d="M399.94,100.19a.683.683,0,0,1,.21-.56.857.857,0,0,1,.56-.16,1.408,1.408,0,0,1,.45.07,1.44,1.44,0,0,1,.25.09v2.59a1.8,1.8,0,0,1,.5-.37,1.682,1.682,0,0,1,.85-.19,2.131,2.131,0,0,1,1.62.76,2.676,2.676,0,0,1,.49.87,3.544,3.544,0,0,1-.01,2.26,2.542,2.542,0,0,1-.54.87,2.4,2.4,0,0,1-.81.56,2.529,2.529,0,0,1-1.01.2,2.813,2.813,0,0,1-1.21-.27,2.333,2.333,0,0,1-.9-.78,2.409,2.409,0,0,1-.34-.81,4.377,4.377,0,0,1-.12-1.14V100.2Zm2.53,5.45a1,1,0,0,0,.76-.34,1.269,1.269,0,0,0,.3-.89,1.369,1.369,0,0,0-.3-.91.947.947,0,0,0-.76-.35.935.935,0,0,0-.43.1,1.267,1.267,0,0,0-.34.27,1.2,1.2,0,0,0-.22.4,1.687,1.687,0,0,0-.08.5,1.278,1.278,0,0,0,.3.9.959.959,0,0,0,.76.33" transform="translate(-87.09 -97.05)"/>
    <path id="Path_45" d="M406.9,107.59a1.109,1.109,0,0,0,.16.07,1.811,1.811,0,0,0,.31.09,3.51,3.51,0,0,0,.42.08,3.887,3.887,0,0,0,.49.04,1.349,1.349,0,0,0,1.03-.34,1.6,1.6,0,0,0,.31-1.12,1.193,1.193,0,0,1-.54.37,1.963,1.963,0,0,1-.72.14,2.608,2.608,0,0,1-.79-.12,1.765,1.765,0,0,1-.64-.36,1.688,1.688,0,0,1-.43-.62,2.225,2.225,0,0,1-.15-.89v-2.41a.683.683,0,0,1,.21-.56.857.857,0,0,1,.56-.16,1.367,1.367,0,0,1,.45.07,2.249,2.249,0,0,1,.26.09v2.65a1.013,1.013,0,0,0,.21.71.863.863,0,0,0,.65.22.82.82,0,0,0,.65-.27,1.268,1.268,0,0,0,.23-.82v-1.91a.683.683,0,0,1,.21-.56.857.857,0,0,1,.56-.16,1.367,1.367,0,0,1,.45.07,2.249,2.249,0,0,1,.26.09v4.35a4.272,4.272,0,0,1-.18,1.33,2.138,2.138,0,0,1-.53.89,2.077,2.077,0,0,1-.81.5,3.431,3.431,0,0,1-1.05.16,6.3,6.3,0,0,1-.75-.05q-.3-.045-.6-.12a3.376,3.376,0,0,1-.42-.13.981.981,0,0,1-.18-.08l.36-1.21Z" transform="translate(-87.09 -97.05)"/>
    <path id="Path_46" d="M465.95,134.37l1.88,2.42,4.33-3.37L470.28,131Z" transform="translate(-87.09 -97.05)" fill="#212121"/>
    <path id="Path_47" d="M450.46,128.95h3.11v-2.36h15.61v2.36h3.08v-5.43h-9.33v-2.46h-3.12v2.46h-9.36v5.43Z" transform="translate(-87.09 -97.05)" fill="#212121"/>
    <path id="Path_48" d="M525.58,136.33V121.75H511.57v14.58h5.47v2.68h-4.8v3.07h4.8v2.68h-5.47v3.11h14.01v-3.11h-5.47v-2.68h4.8v-3.07h-4.8v-2.68h5.47Zm-6.1-11.24v-.26h3.02v3.44h-3.02Zm-1.82,8.17h-3.02v-3.47h3.02Zm0-4.99h-3.02v-3.44h3.02Zm1.82,4.99v-3.47h3.02v3.47Z" transform="translate(-87.09 -97.05)" fill="#212121"/>
    <path id="Path_49" d="M469.14,138.01l-3.06.46a24.6,24.6,0,0,0,1.1,4.71,15.547,15.547,0,0,0,2.3,4.14l2.65-1.54a17.948,17.948,0,0,1-3.01-7.77" transform="translate(-87.09 -97.05)" fill="#212121"/>
    <path id="Path_50" d="M442.65,133.77h-3.06v-3.63h3.06v-2.72h-3.06V125.8h-2.72v1.62h-4.89v2.72h4.89v3.63h-4.89v2.75h4.89v4.58h2.72v-4.58h3.06Z" transform="translate(-87.09 -97.05)" fill="#212121"/>
    <path id="Path_51" d="M508.45,140.44v-5.91h1.6v-3.07h-1.6v-4.83h1.6v-3.07h-6.28v3.07h1.6v4.84h-1.6v3.07h1.6v6.5l-.23.03a12.625,12.625,0,0,1-1.37.1v3.07a17.914,17.914,0,0,0,4-.46,7.15,7.15,0,0,0,2.28-.9v-3.06c-.4.18-.81.35-1.26.51l-.34.12Z" transform="translate(-87.09 -97.05)" fill="#212121"/>
    <path id="Path_52" d="M497.59,147.83V140.6H481.53v-1.51h14.73v-5.42h2.67v-5.34h-9.36v-1h-3.08v1h-9.36v5.34h1.33v14.16H497.6Zm-3.34-4.49h.26v1.75H481.53v-1.75Zm-1.07-6.92v.26H481.53v-1.35h11.65v1.09Zm-12.98-5.01h15.65v1.52H480.2Z" transform="translate(-87.09 -97.05)" fill="#212121"/>
    <path id="Path_53" d="M480.25,127.33c.02-.06.04-.13.07-.22.08-.28.2-.7.31-1.28l.04-.21h1.77l.47,1.43h3.13l-.44-1.43h1.66v-3.07h-6.22l.02-.28c.03-.38.03-.76.03-1.19h-3.08a20.5,20.5,0,0,1-.8,5.88l3.04.37Z" transform="translate(-87.09 -97.05)" fill="#212121"/>
    <path id="Path_54" d="M489.56,127.02V127l1.02.31q.06-.09.15-.24a8.4,8.4,0,0,0,.55-1.27l.06-.18h1.94l.47,1.43h3.13l-.43-1.43h2.49v-3.07h-7.02l.02-.28c.03-.39.05-.77.06-1.19h-3.08a11.061,11.061,0,0,1-1.25,5.35l1.9.58Z" transform="translate(-87.09 -97.05)" fill="#212121"/>
    <path id="Path_55" d="M462.83,145.16a9.073,9.073,0,0,0,1.8-5.82,22.643,22.643,0,0,0-1.58-7.62l-.13-.35h4.68V128.3H455.16v3.07h2.35l-.81.48a17.739,17.739,0,0,1-5.64,2.03l.69,2.43a19.292,19.292,0,0,0,7.99-3.59l.27-.21.13.32c.14.34.24.65.34.95l.05.16-.13.11a16.7,16.7,0,0,1-3.84,2.56,19.475,19.475,0,0,1-4.47,1.39l.69,2.42a19.249,19.249,0,0,0,8.09-3.62l.34-.27.08.42c.07.38.1.75.17,1.06l.03.15-.11.1a16.526,16.526,0,0,1-3.79,2.51,19.393,19.393,0,0,1-4.42,1.38l.69,2.39a19.86,19.86,0,0,0,6.78-2.67l.75-.49-.38.81a5.193,5.193,0,0,1-1.5,1.88,8.32,8.32,0,0,1-1.79,1.07l1.65,2.59a8.984,8.984,0,0,0,3.47-2.6" transform="translate(-87.09 -97.05)" fill="#212121"/>
    <path id="Path_56" d="M358,123.96l.11.06a34.942,34.942,0,0,0,10.79,3.03v-3.07a29.859,29.859,0,0,1-10.91-3.51,30,30,0,0,1-10.9,3.51v3.07a35.5,35.5,0,0,0,10.78-3.02l.12-.06Z" transform="translate(-87.09 -97.05)" fill="#212121"/>
    <path id="Path_57" d="M373.75,121.75v26.08h21.81V121.75Zm18.73,23.01H376.83V124.83h15.64v19.93Z" transform="translate(-87.09 -97.05)" fill="#212121"/>
    <path id="Path_58" d="M359.54,140.02h7.36v-3.07h-7.36v-4.77h7.36v-3.07H349.06v3.07h7.4v4.77h-7.4v3.07h7.4v4.74h-9.37v3.07H368.9v-3.07h-9.36Z" transform="translate(-87.09 -97.05)" fill="#212121"/>
    <path id="Path_59" d="M387.4,137.18l.36,1.78h1.84l-.36-1.78Z" transform="translate(-87.09 -97.05)" fill="#212121"/>
    <path id="Path_60" d="M412.85,139.19h8.36v-3.07H401.4v3.07h8.36v5.57H400.4v3.07h21.81v-3.07h-9.36v-5.57Z" transform="translate(-87.09 -97.05)" fill="#212121"/>
    <path id="Path_61" d="M400.41,128.95h3.08v-2.33h3.39l-.04.29a5.626,5.626,0,0,1-1.54,3.37,9.591,9.591,0,0,1-3.73,2.1l1.26,2.82a11.562,11.562,0,0,0,5.24-3.26,8.828,8.828,0,0,0,1.9-5.09l.02-.24h2.59v1.79a7.416,7.416,0,0,0,.84,3.72,4.476,4.476,0,0,0,2.49,2.01,7.93,7.93,0,0,0,2.65.4h1.87v-3.08h-1.87a3.8,3.8,0,0,1-1.25-.2,2.287,2.287,0,0,1-.92-.61,3.2,3.2,0,0,1-.72-2.24v-1.79h3.48v2.33h3.08v-5.4h-9.37v-2.46h-3.08v2.46h-9.36v5.4Z" transform="translate(-87.09 -97.05)" fill="#212121"/>
    <path id="Path_62" d="M378.85,140.14v2.44h11.58v-2.44H386.2V136h3.43v-2.41H386.2v-4.14h4.23v-2.44H378.85v2.44h4.27v4.14h-3.47V136h3.47v4.14Z" transform="translate(-87.09 -97.05)" fill="#212121"/>
    <path id="Path_63" d="M435.88,144.02a5.4,5.4,0,0,1-2.32-1.96,4.792,4.792,0,0,1-.66-1.9l-2.73.23a7.428,7.428,0,0,0,.86,2.91,6.828,6.828,0,0,0,1.89,2.15,12.866,12.866,0,0,0,5.11,2.12l.55-2.67a12.186,12.186,0,0,1-2.7-.88" transform="translate(-87.09 -97.05)" fill="#212121"/>
    <path id="Path_64" d="M534.79,144.66c5.47-2.15,6.87-4.69,6.87-10.99v-4.73h-9.1v-3.93h9.1v-3.93h5.23v3.93h7.7v3.93h-7.7v4.73c0,8.77-3.63,12-9.92,14.55l-2.18-3.57Z" transform="translate(-87.09 -97.05)" fill="#005eb5"/>
    <path id="Path_65" d="M534.79,144.66c5.47-2.15,6.87-4.69,6.87-10.99v-4.73h-9.1v-3.93h9.1v-3.93h5.23v3.93h7.7v3.93h-7.7v4.73c0,8.77-3.63,12-9.92,14.55l-2.18-3.57Z" transform="translate(-87.09 -97.05)" fill="none" stroke="#005eb5" stroke-linejoin="round" stroke-width="0.75"/>
    <path id="Path_66" d="M572.02,148.23c-7.21,0-9.97-1.27-9.97-6.95V121.02h5.23v6.44l13.84-.91.44,3.93-14.28.91v9.89c0,2.73.97,3.02,5.52,3.02h6.97v3.93Zm9.1-22.84h-3.05v-4.66h3.05Zm1.4-4.66h3v4.66h-3Z" transform="translate(-87.09 -97.05)" fill="#005eb5"/>
    <path id="Path_67" d="M572.02,148.23c-7.21,0-9.97-1.27-9.97-6.95V121.02h5.23v6.44l13.84-.91.44,3.93-14.28.91v9.89c0,2.73.97,3.02,5.52,3.02h6.97v3.93Zm9.1-22.84h-3.05v-4.66h3.05Zm1.4-4.66h3v4.66h-3Z" transform="translate(-87.09 -97.05)" fill="none" stroke="#005eb5" stroke-linejoin="round" stroke-width="0.75"/>
  </g>
</svg>
