<svg xmlns="http://www.w3.org/2000/svg" width="424.741" height="525.041" viewBox="0 0 424.741 525.041">
  <path id="Path_420" data-name="Path 420" d="M1219.884,1590.038q-1.4,0-2.822-.062l.132-3c1.478.065,2.946.075,4.394.035a51.4,51.4,0,0,0,10.088-1.3l.677,2.922a54.4,54.4,0,0,1-10.679,1.374q-.891.026-1.79.026m-17.946-2.552a56.807,56.807,0,0,1-14.072-6.16l1.577-2.552a53.826,53.826,0,0,0,13.33,5.832Zm44.752-4.294-1.408-2.649a81.893,81.893,0,0,0,12.256-8.132l1.858,2.356a84.74,84.74,0,0,1-12.706,8.425m-70.393-12.1a36.381,36.381,0,0,1-6.7-13.987l2.92-.692a33.408,33.408,0,0,0,6.152,12.841Zm94.474-6.3-2.066-2.175c2.6-2.473,5.211-5.043,7.731-7.528q1.494-1.473,2.986-2.939l2.1,2.142q-1.486,1.461-2.979,2.933c-2.53,2.495-5.146,5.075-7.771,7.567m21.62-20.782-2.035-2.207c3.64-3.354,7.386-6.751,11.134-10.1l2,2.239c-3.737,3.336-7.471,6.722-11.1,10.066m-120.447-1.947-2.971-.4a65.4,65.4,0,0,1,3.976-14.79l2.8,1.079a62.362,62.362,0,0,0-3.805,14.114m142.8-18.015-1.964-2.267c3.729-3.233,7.573-6.517,11.423-9.761l1.935,2.3c-3.841,3.234-7.674,6.509-11.394,9.733m-132.779-9.563-2.663-1.383c1.057-2.037,2.14-4.049,3.217-6.033q1.953-3.6,3.891-7.2l2.642,1.421q-1.939,3.6-3.9,7.21c-1.068,1.969-2.141,3.965-3.19,5.987m155.694-9.748-1.9-2.321c3.8-3.116,7.727-6.3,11.671-9.454l1.875,2.342c-3.935,3.15-7.854,6.323-11.643,9.433m-141.552-16.7-2.655-1.4c2.469-4.7,4.718-9.05,6.871-13.3l2.677,1.356c-2.162,4.266-4.416,8.63-6.893,13.343M1361.052,1486l-1.848-2.363c3.869-3.024,7.865-6.114,11.881-9.186l1.822,2.383c-4.006,3.065-8,6.149-11.855,9.166m23.8-18.215-1.8-2.4q6.006-4.5,12.051-8.955l1.78,2.416q-6.036,4.445-12.03,8.939m-175.2-6.57-2.7-1.3c2.229-4.633,4.355-9.193,6.318-13.556l2.736,1.231c-1.974,4.386-4.111,8.971-6.351,13.626m199.328-11.211-1.761-2.43q6.073-4.4,12.183-8.766l1.745,2.441q-6.1,4.356-12.167,8.755m-187.011-16.223-2.773-1.144c1.938-4.693,3.774-9.372,5.457-13.909l2.813,1.043c-1.695,4.571-3.546,9.285-5.5,14.01m211.4-1.212-1.731-2.451q6.129-4.326,12.284-8.621l1.716,2.459q-6.145,4.291-12.269,8.613m24.579-17.171-1.707-2.467q6.168-4.27,12.351-8.522l1.7,2.473q-6.179,4.25-12.343,8.516m-225.536-9.852-2.854-.924c1.553-4.8,2.99-9.608,4.271-14.3l2.9.789c-1.293,4.741-2.745,9.6-4.312,14.439m250.243-7.149-1.7-2.475q6.189-4.238,12.385-8.466l1.691,2.477q-6.194,4.228-12.38,8.464m24.768-16.916-1.692-2.479,12.389-8.455,1.691,2.476Zm-267.1-5.014-2.932-.641c1.068-4.883,2.005-9.814,2.786-14.656l2.961.477c-.789,4.9-1.737,9.882-2.815,14.82m291.87-11.913-1.7-2.475q6.185-4.238,12.359-8.491l1.7,2.471q-6.18,4.257-12.365,8.495m24.708-17.026-1.712-2.464q6.162-4.273,12.3-8.571l1.722,2.457q-6.148,4.3-12.312,8.578m-311.79-.844-2.984-.305q.257-2.5.464-5.028c.265-3.228.487-6.542.659-9.852l3,.156c-.173,3.339-.4,6.684-.664,9.942q-.21,2.553-.471,5.087m336.372-16.369-1.733-2.45q6.117-4.328,12.21-8.694l1.749,2.437q-6.1,4.373-12.226,8.707M1246.714,1316.6l-3-.03q.021-1.9.02-3.8c0-3.65-.053-7.4-.159-11.141l3-.084c.1,3.771.16,7.548.16,11.225q0,1.914-.02,3.829M1242.9,1286.7c-.3-4.851-.692-9.867-1.158-14.909l2.986-.277c.47,5.072.863,10.119,1.166,15Zm-2.741-29.786c-.574-4.8-1.23-9.789-1.952-14.838l2.969-.423c.725,5.07,1.385,10.085,1.962,14.906Zm-4.218-29.636c-.767-4.714-1.619-9.681-2.53-14.76l2.953-.53c.915,5.1,1.768,10.078,2.537,14.808Zm-5.271-29.486c-.89-4.63-1.839-9.437-2.9-14.7l2.941-.594c1.064,5.271,2.016,10.088,2.908,14.727Zm-5.916-29.389-3.051-14.676,2.938-.612,3.055,14.7Zm-6.1-29.363-3.053-14.685,2.938-.612,3.053,14.686Zm-6.1-29.372-3.053-14.685,2.937-.612,3.053,14.686Zm-6.106-29.372-3.054-14.685,2.937-.612,3.055,14.686Z" transform="translate(-1168.973 -1064.997)" fill="#4588bb"/>
</svg>
