<svg xmlns="http://www.w3.org/2000/svg" width="461.047" height="346.882" viewBox="0 0 461.047 346.882">
  <path id="Path_429" data-name="Path 429" d="M1534.375,493.27c1.135-4.837,2.447-9.674,3.9-14.378l-2.866-.885c-1.474,4.769-2.805,9.674-3.955,14.579Zm8.809-28.443c1.822-4.668,3.822-9.259,5.942-13.645l-2.7-1.306c-2.154,4.456-4.185,9.119-6.036,13.859Zm339.629-2.2c2.662,0,5.325-.073,7.915-.218l-.168-3a144.065,144.065,0,0,1-14.838.043l-.143,3c2.424.115,4.858.174,7.234.174m-22.3-1.577.408-2.973c-4.793-.657-9.722-1.534-14.649-2.607l-.639,2.932c5,1.089,10.011,1.98,14.88,2.648m45.28-.375a109.653,109.653,0,0,0,14.74-3.67l-.929-2.852a106.712,106.712,0,0,1-14.336,3.569Zm-74.794-6,.838-2.881c-4.675-1.36-9.442-2.913-14.171-4.615L1816.654,450c4.786,1.723,9.613,3.3,14.348,4.674m103.591-3.481a91.185,91.185,0,0,0,12.938-8.022l-1.791-2.407a88.038,88.038,0,0,1-12.51,7.756Zm-131.976-6.714,1.178-2.76c-4.509-1.923-9.069-4.017-13.556-6.224l-1.324,2.693c4.535,2.23,9.145,4.346,13.7,6.291m-246.463-6.4c2.576-4.332,5.329-8.5,8.181-12.383l-2.418-1.776c-2.91,3.963-5.717,8.211-8.342,12.626Zm402.78-5a96.684,96.684,0,0,0,9.589-11.8l-2.469-1.706a93.433,93.433,0,0,1-9.29,11.437Zm-183.368-1.9,1.461-2.62c-3.073-1.715-6.171-3.517-9.21-5.358q-1.831-1.11-3.677-2.222l-1.549,2.569q1.844,1.11,3.671,2.218c3.069,1.86,6.2,3.681,9.3,5.413m-25.859-15.264,1.506-2.594c-4.658-2.7-8.945-5.118-13.1-7.384l-1.436,2.635c4.138,2.253,8.4,4.655,13.035,7.343m-175.974-1.675a118.335,118.335,0,0,1,10.661-10.253l-1.938-2.291a121.765,121.765,0,0,0-10.932,10.513Zm402.5-6.043a127.239,127.239,0,0,0,5.941-13.948l-2.824-1.012a124.347,124.347,0,0,1-5.8,13.617Zm-252.814-6.534,1.334-2.687c-4.673-2.318-9.271-4.463-13.667-6.373l-1.2,2.751c4.349,1.891,8.9,4.013,13.528,6.309m-127.117-6.4a96.52,96.52,0,0,1,13.051-6.874l-1.188-2.754a99.443,99.443,0,0,0-13.459,7.087Zm99.737-5.416,1.016-2.823c-4.9-1.76-9.75-3.292-14.421-4.552l-.781,2.9c4.593,1.239,9.365,2.746,14.186,4.479m-72.723-6.21a97.923,97.923,0,0,1,14.535-2.552l-.3-2.986a101.162,101.162,0,0,0-14.983,2.63Zm44.035-1.43.484-2.961a125.563,125.563,0,0,0-15.089-1.565l-.123,3a122.5,122.5,0,0,1,14.728,1.529m319.19-2.443c1.177-4.72,2.191-9.7,3.015-14.811l-2.961-.477c-.812,5.025-1.809,9.924-2.964,14.562Zm4.879-29.789c.448-4.946.767-10.01.946-15.051l-3-.106c-.177,4.985-.493,9.994-.936,14.887ZM1989.5,319.9l3-.052c-.088-5.022-.311-10.093-.664-15.072l-2.992.212c.349,4.926.569,9.944.656,14.912m-2.113-29.763,2.976-.375c-.631-5.019-1.409-10.036-2.31-14.911l-2.949.545c.89,4.819,1.658,9.779,2.283,14.741m-5.439-29.309,2.911-.726c-1.234-4.944-2.626-9.829-4.139-14.519l-2.856.921c1.493,4.626,2.867,9.445,4.084,14.324m-9.17-28.308,2.777-1.132c-1.931-4.737-4.042-9.365-6.277-13.753L1966.606,219c2.2,4.314,4.274,8.864,6.174,13.524m-13.521-26.426,2.531-1.608c-1.526-2.4-3.126-4.767-4.753-7.024-1.3-1.809-2.671-3.6-4.064-5.311l-2.328,1.893c1.357,1.669,2.689,3.409,3.959,5.172,1.593,2.21,3.159,4.524,4.655,6.878m-18.7-22.835,2.041-2.2a106.807,106.807,0,0,0-11.839-9.515l-1.709,2.466a103.77,103.77,0,0,1,11.507,9.247m-24.2-16.8,1.359-2.675a126.468,126.468,0,0,0-13.917-6.018l-1.027,2.82a123.144,123.144,0,0,1,13.585,5.873m-27.778-10.216.737-2.908c-4.681-1.185-9.664-2.222-14.811-3.085l-.5,2.959c5.066.849,9.969,1.87,14.57,3.034m-29.354-5.007.306-2.984c-4.789-.491-9.707-.871-15.036-1.162l-.164,2.995c5.282.288,10.154.665,14.894,1.151m-29.84-1.7.062-3c-4.517-.095-9.434-.144-15.032-.149l0,3c5.576.005,10.474.053,14.972.148" transform="translate(-1531.455 -146.388)" fill="#4588bb"/>
</svg>
