<svg xmlns="http://www.w3.org/2000/svg" width="658.727" height="592.402" viewBox="0 0 658.727 592.402">
  <path id="Path_427" data-name="Path 427" d="M742.6,22.728l-2.844.954c1.722,5.14,3.182,9.8,4.463,14.253L747.1,37.1c-1.293-4.492-2.766-9.194-4.5-14.376m8.233,29-2.93.641c1.108,5.062,1.97,9.988,2.563,14.641l2.975-.379c-.6-4.741-1.48-9.755-2.608-14.9m3.677,30.031-3,.028c0,.359.006.717.005,1.076a101.047,101.047,0,0,1-.9,13.665l2.973.407a104.106,104.106,0,0,0,.931-14.07q0-.552-.005-1.106m-7.107,29.13a69.537,69.537,0,0,1-5.876,13.4l2.6,1.494a72.5,72.5,0,0,0,6.131-13.981Zm-14.533,25.182a71.228,71.228,0,0,1-11.022,9.648l1.739,2.444a74.192,74.192,0,0,0,11.487-10.057ZM709.15,153.166a112.739,112.739,0,0,1-13.735,5.48l.933,2.851a115.744,115.744,0,0,0,14.1-5.627ZM457.319,154.3l-.035,3c4.819.055,9.849.188,14.951.395l.122-3c-5.131-.209-10.191-.343-15.038-.4m-15.054.086c-5.125.12-10.188.34-15.049.653l.192,2.994c4.822-.31,9.844-.529,14.927-.648Zm45.106,1.11-.194,2.994c3.931.256,8.059.558,12.269.9.866.069,1.75.146,2.65.226l.268-2.988q-1.364-.123-2.676-.229c-4.225-.342-8.37-.646-12.317-.9m-75.174.861c-5.094.573-10.122,1.276-14.943,2.089l.5,2.958c4.768-.8,9.74-1.5,14.779-2.066Zm105.129,1.838-.343,2.98c4.708.543,9.688,1.146,14.891,1.779l.362-2.979c-5.21-.632-10.2-1.237-14.91-1.78m-134.876,3.23c-5,1.176-9.9,2.52-14.577,3.992l.9,2.861c4.607-1.45,9.44-2.773,14.363-3.933Zm164.679.341-.351,2.979c5.484.647,10.367,1.2,14.925,1.689l.322-2.982c-4.549-.49-9.421-1.041-14.9-1.686m133.956.75c-4.623,1.011-9.555,1.88-14.656,2.583l.41,2.971c5.178-.713,10.187-1.6,14.887-2.623Zm-104.154,2.43-.274,2.987c5.185.477,10.226.89,14.985,1.229l.213-2.992c-4.739-.338-9.76-.75-14.924-1.224M651.6,166.66c-4.76.359-9.777.609-14.911.745l.079,3c5.183-.137,10.249-.39,15.058-.753Zm-44.8.387-.135,3c5.169.234,10.231.385,15.046.448l.04-3c-4.783-.063-9.813-.213-14.951-.445m-253.155,3.5c-4.733,1.94-9.349,4.088-13.721,6.384l1.4,2.656c4.288-2.252,8.818-4.36,13.464-6.264Zm-26.746,14.1a137.628,137.628,0,0,0-12.134,9.075l1.928,2.3a134.56,134.56,0,0,1,11.868-8.876Zm-23.178,19.46c-3.457,3.627-6.8,7.472-9.927,11.425l2.352,1.863c3.073-3.883,6.353-7.657,9.747-11.218Zm-18.777,23.7c-2.733,4.167-5.338,8.537-7.742,12.99l2.64,1.425c2.363-4.378,4.924-8.674,7.61-12.77ZM270.577,254.38c-2,4.556-3.857,9.289-5.523,14.064l2.832.988c1.641-4.7,3.471-9.361,5.438-13.847Zm-9.969,28.5c-1.289,4.8-2.433,9.754-3.4,14.713l2.944.573c.953-4.89,2.081-9.771,3.353-14.508ZM254.821,312.5c-.624,4.938-1.1,9.995-1.409,15.028l2.994.185c.307-4.97.775-9.962,1.392-14.837Zm1.131,30.111-3,0c0,5,.159,10.071.467,15.082l2.994-.184c-.3-4.95-.459-9.963-.461-14.9m1.821,29.746-2.977.363c.607,4.982,1.374,10,2.278,14.916l2.95-.543c-.893-4.856-1.65-9.815-2.251-14.736m5.384,29.325-2.918.695c1.116,4.68,2.276,9.558,3.443,14.594l2.923-.677c-1.169-5.042-2.33-9.926-3.448-14.612m6.739,29.273-2.932.633c1.017,4.71,1.922,9.1,2.755,13.376q-1.936-.666-3.864-1.3l-.935,2.851c2.974.976,5.989,2.02,8.963,3.1q2.566.933,5.131,1.873l1.032-2.818q-2.568-.939-5.137-1.875-1.357-.494-2.725-.977l.73-.141c-.907-4.7-1.894-9.521-3.018-14.726m-78.187.442a138.472,138.472,0,0,0-15.106,1.247l.416,2.971a135.2,135.2,0,0,1,14.777-1.219Zm15.127.276-.187,2.994c4.8.3,9.777.811,14.8,1.517l.417-2.971c-5.1-.716-10.159-1.235-15.033-1.54M161.73,435.72a95.761,95.761,0,0,0-14.291,5.228l1.258,2.724a92.741,92.741,0,0,1,13.842-5.064Zm75.011.1-.613,2.936c4.757.993,9.635,2.164,14.5,3.48l.783-2.9c-4.92-1.331-9.856-2.516-14.67-3.52m398.645,10.053q-1.353,1.393-2.734,2.75l2.1,2.142q1.41-1.383,2.788-2.8ZM134.23,448.55a79.944,79.944,0,0,0-11.564,9.945l2.165,2.077A76.9,76.9,0,0,1,135.96,451Zm159.9,5.3-1.038,2.815,1.413.521q6.328,2.334,12.666,4.663l1.033-2.816q-6.336-2.325-12.661-4.662ZM621.574,458.5c-3.8,3.081-7.824,6.045-11.955,8.811l1.669,2.493c4.206-2.816,8.3-5.835,12.174-8.973Zm-346.02,2-2.961.481c.825,5.073,1.543,10.051,2.134,14.794l2.976-.371c-.6-4.78-1.318-9.8-2.149-14.9m46.734,3.673-1.019,2.822c5.069,1.83,9.695,3.477,14.145,5.037l.992-2.831c-4.44-1.556-9.059-3.2-14.118-5.028m-209.1,6.26a94.829,94.829,0,0,0-7.274,13.36l2.739,1.224a91.788,91.788,0,0,1,7.042-12.937Zm237.39,3.638-.955,2.844c4.928,1.655,9.733,3.226,14.283,4.668l.907-2.859c-4.534-1.438-9.323-3-14.235-4.653m246.346.968c-4.28,2.358-8.758,4.592-13.311,6.64l1.23,2.737c4.627-2.082,9.179-4.352,13.529-6.749Zm-217.8,8.064-.847,2.878c4.921,1.447,9.793,2.815,14.479,4.066l.774-2.9c-4.662-1.245-9.509-2.606-14.406-4.046m190.686,4.159c-4.6,1.663-9.367,3.2-14.18,4.564l.819,2.886c4.88-1.385,9.719-2.942,14.381-4.628ZM279.23,490.391l-2.991.232c.4,5.12.643,10.132.733,14.9l3-.057c-.091-4.823-.341-9.894-.741-15.072m128.8.4-.688,2.92c4.958,1.17,9.9,2.252,14.7,3.217l.592-2.942c-4.765-.957-9.678-2.033-14.6-3.2m133.133,4.616c-4.791,1.024-9.727,1.92-14.67,2.66l.444,2.967c5-.75,10-1.656,14.853-2.693Zm-103.83,1.256-.481,2.961c5.006.814,10.022,1.525,14.908,2.114l.359-2.978c-4.845-.584-9.82-1.29-14.786-2.1m-336.642,1.375a139.014,139.014,0,0,0-3.32,14.049l-.127.705,2.955.519.122-.682a135.75,135.75,0,0,1,3.248-13.744Zm410.994,1.8c-4.9.444-9.908.756-14.889.928l.1,3c5.036-.173,10.1-.489,15.055-.938Zm-44.71.361-.215,2.992c5.008.36,10.075.591,15.061.687l.058-3c-4.934-.1-9.948-.324-14.9-.68m-190.249,20.2c-.28,5.13-.777,10.1-1.474,14.783l2.966.443c.712-4.772,1.218-9.84,1.5-15.062ZM95.8,527.947q-.009.632-.009,1.261a88.2,88.2,0,0,0,1.1,13.936l2.962-.476a85.279,85.279,0,0,1-1.063-13.46c0-.4,0-.812.009-1.219ZM272.239,549.69a99.106,99.106,0,0,1-4.911,13.915l2.743,1.215a101.89,101.89,0,0,0,5.061-14.338Zm-168.764,7.227-2.829,1a83.457,83.457,0,0,0,6.374,13.852l2.6-1.5a80.449,80.449,0,0,1-6.144-13.353m156.742,19.552a73.311,73.311,0,0,1-9.413,11.237l2.094,2.149a76.444,76.444,0,0,0,9.8-11.7Zm-142.126,5.812-2.284,1.944A85.589,85.589,0,0,0,126.689,594.9l1.9-2.321a82.637,82.637,0,0,1-10.5-10.3m121.24,14.553a84.283,84.283,0,0,1-13.011,6.841l1.165,2.765a87.2,87.2,0,0,0,13.476-7.088Zm-98.582,4.044-1.468,2.617a89.782,89.782,0,0,0,13.877,6.3l1-2.827a86.709,86.709,0,0,1-13.413-6.088m71.583,7.5c-3.944,1.029-8.127,1.892-12.433,2.566q-1.047.165-2.088.3l.4,2.973q1.071-.146,2.148-.314c4.4-.689,8.686-1.573,12.726-2.626ZM168.4,610.724l-.524,2.954a96.1,96.1,0,0,0,15.148,1.452l.05-3a92.854,92.854,0,0,1-14.674-1.406" transform="translate(-95.789 -22.728)" fill="#4588bb"/>
</svg>
