<svg xmlns="http://www.w3.org/2000/svg" width="22.699" height="19.122" viewBox="0 0 22.699 19.122">
  <path id="Path_217" data-name="Path 217" d="M666.55,384.99c-.11.08-.21.16-.32.24-.12-.16-.24-.32-.37-.48-.53.16-.84.6-1.4.82-.04-.05-.08-.11-.12-.16-.64.49-1.27.98-1.91,1.47a14.9,14.9,0,0,0-3.82,2.93c.2.27.41.53.61.8.05-.04.11-.08.16-.12.08.11.16.21.24.32.05-.04.11-.08.16-.12.18.12.35.24.53.36,1.26-.65,2.79-1.84,4.03-2.33.91-.36,1.81-1.56,2.63-1.52.66-.56.46-.51.71-1.05-.38-.38-.76-.77-1.14-1.15Zm-8.08-3.92c.11-.08.21-.16.32-.24-.04-.05-.08-.11-.12-.16.16-.12.32-.24.48-.37-.04-.05-.08-.11-.12-.16.16-.12.32-.24.48-.37a1.706,1.706,0,0,1,.07-.56c-.24-.32-.49-.64-.73-.96a1.514,1.514,0,0,1-.97-.27,17.681,17.681,0,0,0-2.44,4.41c-.24.35-.47.7-.71,1.05.04.05.08.11.12.16-.09.32-.18.64-.27.97.6.69.75.51,1.33.75a9.941,9.941,0,0,0,1.5-2.67l.83-.89-.12-.16c.16-.12.32-.24.48-.37-.04-.05-.08-.11-.12-.16Zm-10.03-6.47c.04-.6-.55-.84-.98-1.27-.11.08-.21.16-.32.24-.34-.24-.08-.15-.4-.2-.04-.05-.08-.11-.12-.16-.05.04-.11.08-.16.12.04.05.08.11.12.16-.66.85-.27,1.75-.21,2.69-.07.13-.13.27-.2.4.08.11.16.21.24.32-.08.23-.16.46-.23.69.08.11.16.21.24.32-.07.13-.13.27-.2.4.08.11.16.21.24.32-.07.13-.13.27-.2.4a9.756,9.756,0,0,1,.23,2.61c.2.27.41.53.61.8.05-.04.11-.08.16-.12.39.31.44.22.81.39.11-.08.21-.16.32-.24-.04-.28.08-.41.07-.56-.08-.11-.16-.21-.24-.32.08-.23.16-.46.23-.69-.08-.11-.16-.21-.24-.32.08-.23.16-.46.23-.69-.08-.11-.16-.21-.24-.32.09-.32.18-.64.27-.97-.08-.11-.16-.21-.24-.32.1-.42.2-.83.31-1.25-.08-.11-.16-.21-.24-.32.05-.04.11-.08.16-.12a4.271,4.271,0,0,0-.02-2.01Z" transform="translate(-645.581 -372.507)" fill="none" stroke="#f39b13" stroke-width="1"/>
</svg>
