<svg xmlns="http://www.w3.org/2000/svg" width="75.5" height="86.647" viewBox="0 0 75.5 86.647">
  <g id="Group_235" data-name="Group 235" transform="translate(-4692.75 -1042.421)">
    <path id="Path_149" data-name="Path 149" d="M398.794,445.725l0-.015Z" transform="translate(4360.929 671.723)" fill="#d3e4f4"/>
    <path id="Path_150" data-name="Path 150" d="M116.252,62.51l.443-1.163a4.093,4.093,0,0,0-5.263-5.284l-.626.236-.382-.55a5.316,5.316,0,0,0-1.875-1.661,5.209,5.209,0,0,0-4.124-.338l-.89.3-.219-.913a7.074,7.074,0,0,0-13.756,0l-.219.913-.89-.3a5.256,5.256,0,0,0-6.927,4.977,5.463,5.463,0,0,0,.624,2.527l.656,1.255Z" transform="translate(4627.695 1023.234)" fill="#e2edf7"/>
    <path id="Path_177" data-name="Path 177" d="M6,0h6.75C16.064,0,20.1,3.395,20.1,6.709L21.023,9.3c-2.446.084-4.96,0-8.273,0h-7.3C2.134,9.3.013,9.322,0,9.3V6A6,6,0,0,1,6,0Z" transform="translate(4744.75 1101.418)" fill="#e2edf7"/>
    <path id="Path_178" data-name="Path 178" d="M.787,1.584H5.041c.654,0,.827,8.146.7,20.225C5.678,28.02,5.36,35.887,5.36,43.331L6.39,59.891c-.744.535-1.509,0-2.517,0H1.651c-1.008,0-1.653.163-1.657,0V38.8C-.006,17.589-.221,1.584.787,1.584Z" transform="translate(4750.989 1042.275)" fill="#e2edf7"/>
    <g id="Group_233" data-name="Group 233" transform="translate(4693 1042.671)">
      <path id="Path_149-2" data-name="Path 149" d="M398.794,445.725l0-.015Z" transform="translate(-332.071 -370.939)" fill="#4d8cc7" stroke="#005eb7" stroke-width="0.5"/>
      <path id="Path_150-2" data-name="Path 150" d="M138.571,93.759l-1.115,1.193a1.07,1.07,0,0,1-.785.341h-4.814l-.057-.8a58.919,58.919,0,0,0-1.483-9.725.421.421,0,0,0-.154-.231.425.425,0,0,0-.368-.074.421.421,0,0,0-.231.154.424.424,0,0,0-.074.367h0l.016.062c.009.035.021.084.036.147.031.126.074.309.126.543.105.467.247,1.139.4,1.974a62.906,62.906,0,0,1,.864,6.66l.069.922h-6.186V84.879a.427.427,0,1,0-.854,0V95.293h-6.186l.069-.922a61.892,61.892,0,0,1,1.263-8.62c.105-.47.173-.734.18-.763h0v0h0v0a.425.425,0,0,0-.074-.367.421.421,0,0,0-.231-.153h0a.423.423,0,0,0-.366.074.421.421,0,0,0-.154.231h0a58.914,58.914,0,0,0-1.483,9.725l-.057.8h-4.649l1.051-1.378a5.631,5.631,0,0,0,1.15-3.127l.656-12.293H135.78l.124.71c.352,2.014,1.111,6.6,1.569,11.165v.012l.223,3.126h.856l-.228-3.187,0-.023c-.6-5.966-1.718-12.031-1.768-12.3l0-.018,0-.018a12.458,12.458,0,0,0-.993-3.472,10.171,10.171,0,0,0-1.624-2.5,11.044,11.044,0,0,0-4.022-2.827,13.852,13.852,0,0,0-1.717-.589l-.632-.172V33.256a.427.427,0,0,0-.854,0V68.219l-.948-.1a12.411,12.411,0,0,0-1.265-.074h-.2a12.514,12.514,0,0,0-1.272.074l-.948.1V22.573h4.632v4.612a.427.427,0,0,0,.854,0V13.17a3.17,3.17,0,0,0-6.34,0V68.4l-.632.172a13.818,13.818,0,0,0-1.717.589,11.912,11.912,0,0,0-1.927,1.023l-1.419.933.583-10.924.6-.162a1.747,1.747,0,0,0,.921-.612A1.713,1.713,0,0,0,118,58.362V54.818a1.738,1.738,0,0,0-1.735-1.735h-1.715l.443-1.163a4.093,4.093,0,0,0-5.263-5.284l-.626.236-.382-.55a5.316,5.316,0,0,0-1.875-1.661,5.209,5.209,0,0,0-4.124-.338l-.89.3-.219-.913a7.074,7.074,0,0,0-13.756,0l-.219.913-.89-.3A5.256,5.256,0,0,0,79.82,49.3a5.463,5.463,0,0,0,.624,2.527l.656,1.255H78.815a1.738,1.738,0,0,0-1.735,1.735v3.544a1.714,1.714,0,0,0,.365,1.061,1.747,1.747,0,0,0,.921.612l.6.162L79.6,72.139l-4.068,4.068a2.849,2.849,0,0,0,.941,4.654,2.86,2.86,0,0,0,2.376-.107l1.178-.6L80.6,90.787a5.661,5.661,0,0,0,5.653,5.36h22.571a5.649,5.649,0,0,0,1.742-.275l.341-.11.318.165a1.929,1.929,0,0,0,.886.22h24.56a1.927,1.927,0,0,0,1.927-1.929c0-.045,0-.09,0-.136Zm-16.5-80.589a2.316,2.316,0,0,1,4.632,0v8.549h-4.632Zm-6.418,59.215a9.9,9.9,0,0,1,2.556-1.968,12.192,12.192,0,0,1,2.608-1.034,13.635,13.635,0,0,1,3.429-.484h.28c.13,0,.344,0,.622.021l1.225.03-.087.087c.143.021.292.044.447.072a12.818,12.818,0,0,1,3.7,1.237,9.984,9.984,0,0,1,2.535,1.877,9.8,9.8,0,0,1,2.418,4.335l.294,1.083H115.178l.268-5.028ZM80.674,49.321V49.3h0a4.4,4.4,0,0,1,7.152-3.429.427.427,0,0,0,.694-.332v-.013l0-.059c0-.025,0-.061,0-.112a6.217,6.217,0,0,1,12.435,0c0,.051,0,.089,0,.113l0,.058v.011a.427.427,0,0,0,.694.333h0a4.405,4.405,0,0,1,6.866,1.867.427.427,0,0,0,.663.184h0a3.235,3.235,0,0,1,4.173,4.939l-.245.223H82.666l-.23-.176a4.461,4.461,0,0,1-1.291-1.588,4.61,4.61,0,0,1-.471-2ZM78.46,59.243l-.526-.526V54.462l.526-.526h38.157l.526.526v4.255l-.526.526H105.56a3.3,3.3,0,0,0-1.848.558,3.247,3.247,0,0,0-1.2,1.49,5.336,5.336,0,0,1-4.971,3.36c-.132,0-.252-.007-.361-.014L95.3,64.507l3.741-3.741a2.849,2.849,0,0,0-.941-4.654,2.871,2.871,0,0,0-2.147,0,2.828,2.828,0,0,0-.941.624l-3.271,3.271-.569-.327a3.3,3.3,0,0,0-1.65-.437ZM89.588,60.6l-.005.367.595.595-9.761,9.761-.6-11.23h9.7a1.052,1.052,0,0,1,.114.006h.006l-.037.377.033-.377Zm19.236,34.689H86.253a4.807,4.807,0,0,1-4.8-4.551l-.628-11.764,5.8-5.8a.422.422,0,0,0,.094-.141.431.431,0,0,0,0-.322.422.422,0,0,0-.094-.141.414.414,0,0,0-.295-.125.455.455,0,0,0-.168.032.417.417,0,0,0-.141.093l-7.06,7.06a2,2,0,0,1-2.822,0h0a2,2,0,0,1,0-2.822l19.47-19.47a2,2,0,1,1,2.822,2.822l-8.069,8.069a.422.422,0,0,0-.094.141.431.431,0,0,0,0,.322.422.422,0,0,0,.094.141.414.414,0,0,0,.3.125.455.455,0,0,0,.168-.032.415.415,0,0,0,.141-.093l3.9-3.9.515.189a6.2,6.2,0,0,0,7.917-3.513,2.4,2.4,0,0,1,.9-1.1,2.454,2.454,0,0,1,1.362-.409h9.7l-1.635,30.645a4.807,4.807,0,0,1-4.8,4.551" transform="translate(-63.599 -10)" fill="#4d8cc7" stroke="#005eb7" stroke-width="0.5"/>
      <path id="Path_151" data-name="Path 151" d="M13.546,95.7a11.309,11.309,0,0,1-3.1,2.077h0a.745.745,0,0,0,0,1.362h0a11.309,11.309,0,0,1,3.1,2.077,13.677,13.677,0,0,1,2.135,2.58,17.521,17.521,0,0,1,2.044,4.508.743.743,0,0,0,1.429,0,17.836,17.836,0,0,1,1.286-3.2,14.423,14.423,0,0,1,2.892-3.885,11.308,11.308,0,0,1,3.1-2.077h0a.745.745,0,0,0,0-1.362h0a11.308,11.308,0,0,1-3.1-2.077,13.677,13.677,0,0,1-2.135-2.58,17.514,17.514,0,0,1-2.043-4.508.742.742,0,0,0-1.429,0,17.84,17.84,0,0,1-1.286,3.2A14.419,14.419,0,0,1,13.546,95.7m4.893-6.189.783,1.74a17.052,17.052,0,0,0,2.005,3.387,13.115,13.115,0,0,0,3.335,3.1l1.135.723-1.135.724a13.116,13.116,0,0,0-3.336,3.1,17.052,17.052,0,0,0-2.005,3.387l-.783,1.74-.783-1.74a17.052,17.052,0,0,0-2.005-3.387,13.11,13.11,0,0,0-3.336-3.1l-1.135-.724,1.135-.723a13.115,13.115,0,0,0,3.336-3.1,17.052,17.052,0,0,0,2.005-3.387Z" transform="translate(-10 -74.679)" fill="#4d8cc7" stroke="#005eb7" stroke-width="0.5"/>
      <path id="Path_152" data-name="Path 152" d="M121.634,70.381a8.074,8.074,0,0,1,2.225,1.493,9.786,9.786,0,0,1,1.524,1.848,12.559,12.559,0,0,1,1.454,3.215.655.655,0,0,0,1.261,0,12.794,12.794,0,0,1,.915-2.283,10.325,10.325,0,0,1,2.062-2.78,8.077,8.077,0,0,1,2.225-1.493.657.657,0,0,0,0-1.2,8.066,8.066,0,0,1-2.225-1.493,9.779,9.779,0,0,1-1.524-1.848,12.561,12.561,0,0,1-1.454-3.215.655.655,0,0,0-1.261,0,12.809,12.809,0,0,1-.915,2.283,10.32,10.32,0,0,1-2.062,2.779,8.07,8.07,0,0,1-2.225,1.493h0a.657.657,0,0,0,0,1.2Zm1.87-1.3a9.682,9.682,0,0,0,1.912-1.832,12.016,12.016,0,0,0,1.288-2l.763-1.484.763,1.484a12.015,12.015,0,0,0,1.288,2,9.691,9.691,0,0,0,1.912,1.832l.971.7-.971.7a9.681,9.681,0,0,0-1.912,1.832,12.02,12.02,0,0,0-1.288,2l-.763,1.484-.763-1.484a12.007,12.007,0,0,0-1.288-2,9.682,9.682,0,0,0-1.912-1.832l-.971-.7Z" transform="translate(-102.154 -53.201)" fill="#4d8cc7" stroke="#005eb7" stroke-width="0.5"/>
    </g>
  </g>
</svg>
