<svg xmlns="http://www.w3.org/2000/svg" width="76.5" height="72.504" viewBox="0 0 76.5 72.504">
  <g id="Group_239" data-name="Group 239" transform="translate(-5227.25 -1213.358)">
    <g id="Group_199" data-name="Group 199" transform="translate(5228 1214.108)">
      <path id="Path_75" data-name="Path 75" d="M77.8,1474.089a7.791,7.791,0,0,0-2.376-13.668,12.2,12.2,0,0,0-21.314-7.325,10.223,10.223,0,0,0-19.139-7.16,7.786,7.786,0,0,0-9.737,5.331,12.217,12.217,0,1,0-13.959,20.051,10.207,10.207,0,0,0,7.651,13.856c0,.058-.009.115-.009.174a10.221,10.221,0,0,0,17.364,7.317H52.784a7.789,7.789,0,0,0,14.195.658c.282.02.562.043.849.043a12.21,12.21,0,0,0,9.97-19.276" transform="translate(-5.906 -1439.619)" fill="#e2edf7"/>
      <path id="Path_76" data-name="Path 76" d="M77.8,1474.089a7.791,7.791,0,0,0-2.376-13.668,12.2,12.2,0,0,0-21.314-7.325,10.223,10.223,0,0,0-19.139-7.16,7.786,7.786,0,0,0-9.737,5.331,12.217,12.217,0,1,0-13.959,20.051,10.207,10.207,0,0,0,7.651,13.856c0,.058-.009.115-.009.174a10.221,10.221,0,0,0,17.364,7.317H52.784a7.789,7.789,0,0,0,14.195.658c.282.02.562.043.849.043a12.21,12.21,0,0,0,9.97-19.276Z" transform="translate(-5.906 -1439.619)" fill="none" stroke="#005eb7" stroke-linecap="round" stroke-linejoin="round" stroke-width="1.5"/>
      <path id="Path_77" data-name="Path 77" d="M58.1,1518.83l9.493,10.662,5.321,18.292-2.494,16.629H88.88l-2.161-16.463,6.255-7.343,7.489-15.612a2.042,2.042,0,0,0-3.535-2.04l-7.712,13.655-8.317,4.274-5.654-12.056,5.748-10.17a1.84,1.84,0,0,0-3.1-1.97l-6.138,8.648-10.311-9.746a2.329,2.329,0,0,0-3.339,3.241" transform="translate(-42.753 -1493.408)" fill="#fff"/>
      <path id="Path_78" data-name="Path 78" d="M58.1,1518.83l9.493,10.662,5.321,18.292-2.494,16.629H88.88l-2.161-16.463,6.255-7.343,7.489-15.612a2.042,2.042,0,0,0-3.535-2.04l-7.712,13.655-8.317,4.274-5.654-12.056,5.748-10.17a1.84,1.84,0,0,0-3.1-1.97l-6.138,8.648-10.311-9.746a2.329,2.329,0,0,0-3.339,3.241Z" transform="translate(-42.753 -1493.408)" fill="none" stroke="#005eb7" stroke-linecap="round" stroke-linejoin="round" stroke-width="1.5"/>
    </g>
  </g>
</svg>
