<svg id="envelopes" xmlns="http://www.w3.org/2000/svg" width="75" height="76.756" viewBox="0 0 75 76.756">
  <path id="Path_135" data-name="Path 135" d="M31.179,71.388H35.2a.667.667,0,1,0,0-1.334h-4.02a6.506,6.506,0,0,0-5.185,2.584V29.694a6.506,6.506,0,0,0,5.185,2.584H63.723a6.506,6.506,0,0,0,5.185-2.584v3.986a.667.667,0,0,0,1.334,0V25.552A3.556,3.556,0,0,0,66.69,22H28.212a3.556,3.556,0,0,0-3.552,3.552V76.89a3.557,3.557,0,0,0,3.552,3.552H35.2a.667.667,0,1,0,0-1.334H28.212a2.221,2.221,0,0,1-2.218-2.218v-.316a5.191,5.191,0,0,1,5.185-5.185ZM25.994,25.552a2.221,2.221,0,0,1,2.218-2.218H66.689a2.221,2.221,0,0,1,2.218,2.218v.206a5.191,5.191,0,0,1-5.185,5.185H31.179a5.191,5.191,0,0,1-5.185-5.185Z" transform="translate(-24.66 -22)" fill="#005eb7"/>
  <path id="Path_136" data-name="Path 136" d="M74.526,118.257l7.031.03h0a.667.667,0,0,0,0-1.334l-7.034-.03a6.506,6.506,0,0,0-5.185,2.584V76.563a6.506,6.506,0,0,0,5.185,2.584h32.543a6.506,6.506,0,0,0,5.185-2.584V96.347a.667.667,0,1,0,1.334,0V72.421a3.556,3.556,0,0,0-3.552-3.552H71.562a3.556,3.556,0,0,0-3.552,3.552v51.338a3.557,3.557,0,0,0,3.552,3.552h10a.667.667,0,1,0,0-1.334h-10a2.221,2.221,0,0,1-2.218-2.218v-.316a5.19,5.19,0,0,1,5.182-5.185ZM69.344,72.421A2.221,2.221,0,0,1,71.562,70.2h38.477a2.221,2.221,0,0,1,2.218,2.218v.206a5.191,5.191,0,0,1-5.185,5.185H74.529a5.191,5.191,0,0,1-5.185-5.185Z" transform="translate(-55.03 -54.836)" fill="#005eb7"/>
  <path id="Path_137" data-name="Path 137" d="M161.488,125.094H144.811a.667.667,0,1,0,0,1.334h16.676a.667.667,0,0,0,0-1.334Z" transform="translate(-108.368 -94.226)" fill="#005eb7"/>
  <path id="Path_138" data-name="Path 138" d="M161.488,140.25H144.811a.667.667,0,1,0,0,1.334h16.676a.667.667,0,0,0,0-1.334Z" transform="translate(-108.368 -104.844)" fill="#005eb7"/>
  <path id="Path_139" data-name="Path 139" d="M98.33,123.351V111.072a1.423,1.423,0,0,0-1.421-1.421H87.341a1.422,1.422,0,0,0-1.42,1.421v12.279a1.422,1.422,0,0,0,1.42,1.42h9.568A1.422,1.422,0,0,0,98.33,123.351Zm-1.334,0a.087.087,0,0,1-.087.087H87.341a.086.086,0,0,1-.087-.087V111.072a.087.087,0,0,1,.087-.087h9.568a.087.087,0,0,1,.087.087Z" transform="translate(-67.578 -83.407)" fill="#005eb7"/>
  <path id="Path_140" data-name="Path 140" d="M114.934,143.315a.667.667,0,0,0-.667.667v1.529a.667.667,0,1,0,1.334,0v-1.529A.667.667,0,0,0,114.934,143.315Z" transform="translate(-87.437 -106.991)" fill="#005eb7"/>
  <path id="Path_141" data-name="Path 141" d="M96.285,143.315a.667.667,0,0,0-.667.667v1.529a.667.667,0,1,0,1.334,0v-1.529A.667.667,0,0,0,96.285,143.315Z" transform="translate(-74.372 -106.991)" fill="#005eb7"/>
  <path id="Path_142" data-name="Path 142" d="M105.609,143.315a.667.667,0,0,0-.667.667v1.529a.667.667,0,1,0,1.334,0v-1.529A.667.667,0,0,0,105.609,143.315Z" transform="translate(-80.904 -106.991)" fill="#005eb7"/>
  <path id="Path_143" data-name="Path 143" d="M97.383,120.9v-3.673a.667.667,0,0,0-.667-.667H93.141a.667.667,0,0,0-.667.667V120.9a.667.667,0,0,0,.667.667h3.575A.667.667,0,0,0,97.383,120.9Zm-1.334-.667H93.808V117.9h2.241v2.338Z" transform="translate(-72.169 -88.25)" fill="#005eb7"/>
  <path id="Path_144" data-name="Path 144" d="M165.694,169.866H125.708a2.8,2.8,0,0,0-2.8,2.8V199.55a2.8,2.8,0,0,0,2.8,2.8h39.986a2.8,2.8,0,0,0,2.8-2.8V172.664A2.8,2.8,0,0,0,165.694,169.866Zm-41.45,2.8a1.465,1.465,0,0,1,1.464-1.464h39.986a1.465,1.465,0,0,1,1.464,1.464v1c0,2.307-2.326,4.185-5.185,4.185H129.429c-2.859,0-5.185-1.877-5.185-4.185Zm42.914,26.886a1.465,1.465,0,0,1-1.464,1.464H125.708a1.465,1.465,0,0,1-1.464-1.464v-.407c0-2.432,2.326-4.41,5.185-4.41h32.544c2.859,0,5.185,1.979,5.185,4.41v.407Zm0-3.875a6.836,6.836,0,0,0-5.185-2.277H129.429a6.834,6.834,0,0,0-5.185,2.277V177a6.962,6.962,0,0,0,5.185,2.187h32.544A6.963,6.963,0,0,0,167.158,177v18.678Z" transform="translate(-93.492 -125.592)" fill="#005eb7"/>
  <path id="Path_145" data-name="Path 145" d="M215.234,214.3H198.557a.667.667,0,1,0,0,1.334h16.676a.667.667,0,1,0,0-1.334Z" transform="translate(-146.022 -156.723)" fill="#005eb7"/>
  <path id="Path_146" data-name="Path 146" d="M215.234,229.459H198.557a.667.667,0,1,0,0,1.334h16.676a.667.667,0,1,0,0-1.334Z" transform="translate(-146.022 -167.342)" fill="#005eb7"/>
  <path id="Path_147" data-name="Path 147" d="M149.235,208.454H138.328a1.3,1.3,0,0,0-1.3,1.3v7.6a1.3,1.3,0,0,0,1.3,1.3h10.907a1.3,1.3,0,0,0,1.3-1.3v-7.6A1.3,1.3,0,0,0,149.235,208.454Zm-.034,8.865h-10.84v-7.531H149.2Z" transform="translate(-103.382 -152.626)" fill="#005eb7"/>
  <path id="Path_148" data-name="Path 148" d="M147.1,222.418h3.243a.667.667,0,0,0,.667-.667v-3.243a.667.667,0,0,0-.667-.667H147.1a.667.667,0,0,0-.667.667v3.243A.667.667,0,0,0,147.1,222.418Zm.667-3.243h1.909v1.909h-1.909Z" transform="translate(-109.972 -159.202)" fill="#005eb7"/>
</svg>
