<svg xmlns="http://www.w3.org/2000/svg" width="76.5" height="64.969" viewBox="0 0 76.5 64.969">
  <g id="Group_238" data-name="Group 238" transform="translate(-4726.25 -1244.792)">
    <g id="Group_226" data-name="Group 226" transform="translate(4740.845 1256.218)">
      <path id="Path_89" data-name="Path 89" d="M739.143,1243.158c-3.214,1.423-7.716,1.912-12.1,2.178a10.066,10.066,0,0,1-4.475-.414c.487.869.053,1.854-1.019,2.536a17.816,17.816,0,0,1-6.194,1.951c-5.058.825-11.295,1.226-17.059-.756-2.045-.7-3.721-1.833-3.429-3.351.215-1.117,2.086-1.877,3.067-2.85.594-.589.115-.824-.751-1.278-3.505-1.842-3.92-5.083.882-7.616a20.1,20.1,0,0,1,11.361-1.858c4.21.563,5.884,2.838,9.812,3.566,3.9.722,7.951-.6,11.827-.583,3.755.02,8.115.7,10.3,2.469C743.822,1239.133,742.356,1241.736,739.143,1243.158Z" transform="translate(-694.508 -1197.283)" fill="#e2edf7"/>
      <path id="Path_90" data-name="Path 90" d="M720.469,1272.085a14.182,14.182,0,0,0,14.722-.778" transform="translate(-713.014 -1225.635)" fill="#e2edf7"/>
      <path id="Path_91" data-name="Path 91" d="M729.339,1112.368c1.473,1.689.792,5.572-.607,8.361-2,4.179-2.74,4.6-2.74,8.079a6.561,6.561,0,1,0,13.122,0c0-3.849-1.28-4-3.266-8.078-1.434-2.861-2.137-6.911-.512-8.527" transform="translate(-716.026 -1112.204)" fill="#e2edf7"/>
    </g>
    <g id="Group_229" data-name="Group 229" transform="translate(4727 1245.542)">
      <path id="Path_88" data-name="Path 88" d="M666.537,1088.994l-20.246-13.926h75l-20.8,14.7H686.7" transform="translate(-646.291 -1075.068)" fill="none" stroke="#005eb7" stroke-linecap="round" stroke-linejoin="round" stroke-width="1.5"/>
      <path id="Path_89-2" data-name="Path 89" d="M739.143,1243.158c-3.214,1.423-7.716,1.912-12.1,2.178a10.066,10.066,0,0,1-4.475-.414c.487.869.053,1.854-1.019,2.536a17.816,17.816,0,0,1-6.194,1.951c-5.058.825-11.295,1.226-17.059-.756-2.045-.7-3.721-1.833-3.429-3.351.215-1.117,2.086-1.877,3.067-2.85.594-.589.115-.824-.751-1.278-3.505-1.842-3.92-5.083.882-7.616a20.1,20.1,0,0,1,11.361-1.858c4.21.563,5.884,2.838,9.812,3.566,3.9.722,7.951-.6,11.827-.583,3.755.02,8.115.7,10.3,2.469C743.822,1239.133,742.356,1241.736,739.143,1243.158Z" transform="translate(-680.663 -1186.607)" fill="none" stroke="#005eb7" stroke-linecap="round" stroke-linejoin="round" stroke-width="1.5"/>
      <path id="Path_90-2" data-name="Path 90" d="M720.469,1272.085a14.182,14.182,0,0,0,14.722-.778" transform="translate(-699.169 -1214.959)" fill="none" stroke="#005eb7" stroke-linecap="round" stroke-width="1.5"/>
      <path id="Path_91-2" data-name="Path 91" d="M723.992,1104.712l4.847,4.813c1.473,1.689.792,5.572-.607,8.361-2,4.179-2.74,4.6-2.74,8.079a6.561,6.561,0,1,0,13.122,0c0-3.849-1.28-4-3.266-8.078-1.434-2.861-2.137-6.911-.512-8.527l4.8-4.807,6.342,6.355,10.056-10.077" transform="translate(-701.681 -1098.685)" fill="none" stroke="#005eb7" stroke-linecap="round" stroke-linejoin="round" stroke-width="1.5"/>
      <line id="Line_30" data-name="Line 30" x1="4.576" y1="4.576" transform="translate(50.473 6.029)" fill="none" stroke="#005eb7" stroke-linecap="round" stroke-width="1.5"/>
    </g>
  </g>
</svg>
