<svg xmlns="http://www.w3.org/2000/svg" width="75.75" height="65.901" viewBox="0 0 75.75 65.901">
  <g id="Group_237" data-name="Group 237" transform="translate(-4509.125 -1245.167)">
    <rect id="Rectangle_417" data-name="Rectangle 417" width="63" height="61.5" transform="translate(4510.625 1247.385)" fill="#e2edf7"/>
    <rect id="Rectangle_418" data-name="Rectangle 418" width="52.5" height="53.25" transform="translate(4515.875 1251.135)" fill="#fff"/>
    <path id="Path_94" data-name="Path 94" d="M1301.289,1034.683h-30.11c-.313-.177-.643,16.626,0,17.736-.439.411,20.045.28,19.747,0h10.363Z" transform="translate(3282.487 234.65)" fill="#e2edf7"/>
    <path id="Path_95" data-name="Path 95" d="M1278.653,1027.522a1.116,1.116,0,0,1-1.116,1.116,6.892,6.892,0,0,1-3.493-.861,5.291,5.291,0,0,0-5,0,7.518,7.518,0,0,1-6.985,0,5.292,5.292,0,0,0-5,0,7.518,7.518,0,0,1-6.986,0,4.737,4.737,0,0,0-2.5-.628,1.116,1.116,0,0,1,0-2.233,6.89,6.89,0,0,1,3.493.861,5.293,5.293,0,0,0,5,0,7.518,7.518,0,0,1,6.985,0,5.293,5.293,0,0,0,5,0,7.517,7.517,0,0,1,6.985,0,4.737,4.737,0,0,0,2.5.627,1.116,1.116,0,0,1,1.116,1.116m0,8.988a1.116,1.116,0,0,1-1.116,1.116,6.892,6.892,0,0,1-3.493-.861,5.292,5.292,0,0,0-5,0l-.241.119v18.9a3.572,3.572,0,0,1-3.568,3.568h-58.016a3.572,3.572,0,0,1-3.568-3.568V997.77a3.572,3.572,0,0,1,3.568-3.568h58.016a3.572,3.572,0,0,1,3.568,3.568v18.667a6.751,6.751,0,0,1,2.74-.508,6.892,6.892,0,0,1,3.493.86,4.734,4.734,0,0,0,2.5.628,1.116,1.116,0,0,1,0,2.233,6.891,6.891,0,0,1-3.493-.861,5.292,5.292,0,0,0-5,0,7.518,7.518,0,0,1-6.985,0,5.293,5.293,0,0,0-5,0,7.518,7.518,0,0,1-6.986,0,4.738,4.738,0,0,0-2.5-.627,1.116,1.116,0,0,1,0-2.233,6.893,6.893,0,0,1,3.493.86,5.292,5.292,0,0,0,5,0,6.892,6.892,0,0,1,3.493-.86,7.208,7.208,0,0,1,2.109.281v-14.873h-24.324v50.881h24.324v-15.642a4.5,4.5,0,0,0-2.109-.438,4.737,4.737,0,0,0-2.5.627,7.518,7.518,0,0,1-6.986,0,4.738,4.738,0,0,0-2.5-.627,1.116,1.116,0,0,1,0-2.233,6.893,6.893,0,0,1,3.493.861,5.292,5.292,0,0,0,5,0,7.518,7.518,0,0,1,6.985,0,5.292,5.292,0,0,0,5,0,7.517,7.517,0,0,1,6.985,0,4.735,4.735,0,0,0,2.5.628,1.116,1.116,0,0,1,1.116,1.116m-12.081,1.059a8.57,8.57,0,0,1-1.019.058,7.7,7.7,0,0,1-1.651-.163v15.871a1.116,1.116,0,0,1-1.116,1.116h-53.113a1.116,1.116,0,0,1-1.116-1.116v-53.114a1.116,1.116,0,0,1,1.116-1.116h53.113a1.116,1.116,0,0,1,1.116,1.116v16.948a4.732,4.732,0,0,0,1.651.249,5.719,5.719,0,0,0,1.019-.081V997.77a1.337,1.337,0,0,0-1.335-1.336h-58.016a1.337,1.337,0,0,0-1.336,1.336v58.016a1.336,1.336,0,0,0,1.336,1.335h58.016a1.336,1.336,0,0,0,1.335-1.335Zm-55.784,14.649h24.324v-50.881h-24.324Zm16.145-22.848v-5.186a2.074,2.074,0,0,1,1.866-2.269h1.7v-18.209a1.116,1.116,0,1,1,2.233,0v46.141a1.116,1.116,0,1,1-2.233,0v-18.209h-1.7a2.074,2.074,0,0,1-1.866-2.269m2.233,0c0,.012,0,.025,0,.036h1.332v-5.258h-1.332c0,.012,0,.023,0,.036Z" transform="translate(3305.847 251.34)" fill="#005eb7" stroke="#fff" stroke-width="0.75"/>
  </g>
</svg>
